<svg xmlns="http://www.w3.org/2000/svg" xmlns:svg="http://www.w3.org/2000/svg" xmlns:xlink="http://www.w3.org/1999/xlink" id="Capa_1" width="120" height="120" version="1.1"><metadata id="metadata5534"/><defs id="defs5532"><linearGradient id="linearGradient4769" x1="-409.45" x2="-57.601" y1="-20.943" y2="133.444" gradientTransform="matrix(-0.14938582,0,0,-0.14938581,161.49689,146.17377)" gradientUnits="userSpaceOnUse" xlink:href="#linearGradient4761"/><linearGradient id="linearGradient4761"><stop style="stop-color:#1a1a1a;stop-opacity:1" id="stop4763" offset="0"/><stop style="stop-color:#1a1a1a;stop-opacity:0" id="stop4765" offset="1"/></linearGradient></defs><style id="style5484">.st0{fill:url(#SVGID_1_)}.st1{fill:url(#SVGID_2_)}.st2{fill:url(#SVGID_3_)}.st4{fill:url(#SVGID_4_)}.st6{fill:#282828}.st7{fill:url(#SVGID_5_);stroke:url(#SVGID_6_);stroke-width:8;stroke-miterlimit:10}</style><linearGradient id="SVGID_1_" x1="1981.964" x2="2163.297" y1="2444.496" y2="2444.496" gradientTransform="matrix(-0.29639156,0.95506651,-0.95506651,-0.29639156,3154.5722,-1144.0497)" gradientUnits="userSpaceOnUse"><stop id="stop5487" offset=".039" stop-color="#2cf4e1"/><stop id="stop5489" offset="1" stop-color="#2cb2e1"/></linearGradient><linearGradient id="SVGID_2_" x1="244.602" x2="324.336" y1="113.132" y2="222.118" gradientUnits="userSpaceOnUse"><stop id="stop5494" offset=".039" stop-color="#2cf4e1"/><stop id="stop5496" offset="1" stop-color="#2cb2e1"/></linearGradient><linearGradient id="SVGID_3_" x1="111.456" x2="224.122" y1="126.742" y2="280.742" gradientUnits="userSpaceOnUse"><stop id="stop5501" offset="0" stop-color="#2ce5e1"/><stop id="stop5503" offset="1" stop-color="#2cb2e1"/></linearGradient><linearGradient id="SVGID_4_" x1="186.474" x2="186.474" y1="233.727" y2="36.5" gradientUnits="userSpaceOnUse"><stop id="stop5508" offset="0"/><stop id="stop5510" offset="1" stop-color="#0d0d0d"/></linearGradient><linearGradient id="SVGID_5_" x1="186.057" x2="186.057" y1="248.796" y2="-16.973" gradientUnits="userSpaceOnUse"><stop id="stop5519" offset=".039" stop-color="#2cf4e1"/><stop id="stop5521" offset="1" stop-color="#2cb2e1"/></linearGradient><linearGradient id="SVGID_6_" x1="24.841" x2="347.273" y1="168.862" y2="168.862" gradientUnits="userSpaceOnUse"><stop id="stop5524" offset=".039" stop-color="#2cf4e1"/><stop id="stop5526" offset="1" stop-color="#2cb2e1"/></linearGradient><g id="layer1"><g id="g4415" transform="matrix(6.6790349,0,0,6.6188642,0.30335162,2.0739217)"><g id="g6486" transform="translate(-172.46721,-126.39751)"><path style="fill:url(#linearGradient4769);fill-opacity:1;stroke:none;stroke-opacity:1" id="path4251-6" d="m 173.45333,133.25494 c 1.0975,-4.40154 5.55604,-7.08026 9.95861,-5.98264 4.40077,1.09737 7.0798,5.55565 5.98179,9.95693 -1.09698,4.40205 -5.55553,7.08103 -9.95681,5.98366 -4.40231,-1.09737 -7.08108,-5.55616 -5.98359,-9.95795 z"/><path style="fill:#fff;fill-opacity:1;stroke:none;stroke-opacity:1" id="path4251" d="m 189.24809,136.99018 c -1.0876,4.36188 -5.50598,7.01646 -9.86889,5.92873 -4.36112,-1.08748 -7.01601,-5.5056 -5.92789,-9.86723 1.08709,-4.36239 5.50547,-7.01723 9.8671,-5.92975 4.36265,1.08748 7.01729,5.50611 5.92968,9.86825 z"/><path style="fill:#fff" id="path4985" d="m 180.87377,137.19555 0.52885,-1.99138 1.2521,-0.45744 0.31144,-1.17033 -0.0106,-0.029 -1.2325,0.45027 0.88802,-3.34377 -2.51847,0 -1.16134,4.3637 -0.96963,0.35421 -0.32039,1.20654 0.96889,-0.35393 -0.68446,2.57173 6.70267,0 0.42969,-1.60057 -4.18424,0"/><path style="fill:#fff;fill-rule:nonzero" id="path5145" d="m 183.99938,132.2389 c -0.39489,-1.00353 -1.38519,-1.09411 -2.53833,-0.8702 l -0.41067,-1.4315 -0.87122,0.24986 0.39999,1.39436 c -0.229,0.0651 -0.46207,0.1374 -0.69361,0.20864 l -0.40203,-1.40351 -0.8707,0.24935 0.40965,1.4315 c -0.18727,0.058 -0.37149,0.11501 -0.55214,0.16692 l -0.002,-0.005 -1.20199,0.34451 0.26716,0.93127 c 0,0 0.64018,-0.19745 0.63255,-0.18218 0.35317,-0.10127 0.5267,0.0707 0.61067,0.23816 l 0.46817,1.63047 c 0.0239,-0.007 0.056,-0.0148 0.0936,-0.0203 l -0.0921,0.0265 0.65494,2.2849 c 0.0163,0.11552 0.002,0.31144 -0.24427,0.38269 0.0137,0.007 -0.63407,0.18116 -0.63407,0.18116 l 0.12569,1.09055 1.1338,-0.32569 c 0.21119,-0.0595 0.41984,-0.11552 0.6239,-0.17302 l 0.41576,1.44778 0.8702,-0.24935 -0.41067,-1.43252 a 33.454265,33.454263 0 0 0 0.69819,-0.19338 l 0.40813,1.42641 0.87172,-0.24986 -0.41423,-1.44524 c 1.44066,-0.50431 2.36022,-1.16739 2.09306,-2.58006 -0.21475,-1.13685 -0.87733,-1.48188 -1.76635,-1.4432 0.43153,-0.40203 0.61728,-0.94552 0.3267,-1.67933 z m -0.33077,3.44517 c 0.31042,1.0824 -1.57756,1.49053 -2.16787,1.6605 l -0.5501,-1.91851 c 0.59031,-0.16946 2.3938,-0.8702 2.71746,0.25852 z m -1.18164,-2.59024 c 0.28192,0.9847 -1.29614,1.31293 -1.78823,1.45389 l -0.49871,-1.73989 c 0.49158,-0.14096 1.99229,-0.74043 2.28694,0.28651 z"/><path style="opacity:.5;fill:#fff;fill-opacity:1;stroke:#000;stroke-width:.07402;stroke-miterlimit:4;stroke-dasharray:none;stroke-opacity:1" id="path6359" d="m 189.49181,135.02043 c 0,4.49684 -3.64534,8.14225 -8.14216,8.14225 -4.49686,0 -8.14224,-3.64541 -8.14224,-8.14225 0,-4.49678 3.64538,-8.14215 8.14224,-8.14215 4.49677,0 8.14216,3.64537 8.14216,8.14215"/></g><g id="g6366" transform="matrix(0.0441,0,0,0.0441,0.61320283,1.6354768)"><circle style="fill:url(#SVGID_1_)" id="circle5491" cx="197" cy="139.1" r="90.7" class="st0"/><path style="fill:url(#SVGID_2_)" id="path5498" d="m 260.7,111.9 c 6.5,8.8 9.9,19.2 9.9,30 0,13.1 -5.4,25.2 -14.6,35 l 5.6,20.9 17,0 17.9,-20.3 4.8,-29.7 1,-17.7 -17.7,-20 -23.9,1.8 z" class="st1"/><path style="fill:url(#SVGID_3_)" id="path5505" d="m 63.7,200.2 3.1,12.3 c 0,0 36.6,75.1 119,103 0,0 77.2,-32 110.5,-86.3 l -48.2,-40.1 c 0,0 -22,17.5 -54.7,17.5 -32.7,0 -77.1,-19.5 -77.1,-59.7 0,-40.2 46,-54.9 46,-54.9 l -19.6,-4.8 -50.1,0 -31.8,76.6 2.9,36.4 z" class="st2"/><path style="fill:url(#SVGID_4_)" id="path5512" d="m 340.6,119.5 c -1.4,-1.4 -42,-44.4 -153.3,-82.7 l -0.7,-0.3 c -107.8,37 -154.2,83 -154.2,83 4.2,24.5 14.8,51.8 24.4,73 0.8,1.8 13.6,24.4 23.1,36.7 -5.6,-12.3 -11.7,-23 -11.7,-41.4 0,-51.9 40.2,-94.1 90.5,-95.9 1.2,0 2.5,0 3.7,0.1 l -12,-12 c 0,0 48.3,-8.1 110.3,29.4 0,0 0.9,1.9 0,7.5 0,0 29.2,12.6 31.7,37.1 2.5,24.5 -13,38.5 -25.5,40.5 0,0 6.5,-10.1 -3.5,-15.5 -2.1,-1.2 -4.6,-1.7 -7.1,-1.6 -19.1,0 -21.3,21.8 -21.3,21.8 -0.2,1.1 -0.2,2.2 -0.2,3.3 0,0 -3.2,31.9 53.6,31.3 0,0 28.8,-32.6 36.4,-61.9 2.8,-10.8 4.8,-18.9 6.1,-24.9 3.2,-8.5 6.3,-17.3 9.3,-26.4 l 0.4,-1.1 z" class="st4"/><path style="fill:#282828" id="path5514" d="m 236,119.1 c 0.8,-0.4 3.4,-1.7 6.4,-4.8 6,0.8 11.9,2.7 11.9,2.7 -10.9,-6.6 -25.8,-10.5 -42.3,-10.4 0,0 6.3,9 23.8,12.7 l 0.2,-0.2 z" class="st6"/><path style="fill:#282828" id="path5516" d="m 186.1,41.3 c 10.6,3.3 87.6,28.9 149.2,79.8 l 6.9,-2 -0.5,-0.4 C 281.5,67.7 205.4,41.2 189.6,36.1 l -1.5,-0.5 -2,-0.6 -3.5,1.1 C 166.8,41.2 90.7,67.7 30.5,118.7 l -0.7,0.6 6.7,2.2 C 98.1,70.3 175.5,44.6 186.1,41.3 Z" class="st6"/><path style="fill:url(#SVGID_5_);stroke:url(#SVGID_6_);stroke-width:8;stroke-miterlimit:10" id="path5528" d="M 341.7,109.2 C 281.5,58.2 205.4,31.7 189.6,26.6 l -1.5,-0.5 -2,-0.6 -3.5,1.1 C 166.8,31.7 90.7,58.2 30.5,109.2 l -1.3,1.1 0.3,1.7 c 0.1,0.4 6.6,39.1 28.8,82.8 13.1,25.7 29,48 47.2,66.5 22.3,22.6 48.3,39.3 77.2,49.7 l 1.7,0.6 1.7,0.6 1.8,-0.7 1.7,-0.6 c 28.9,-10.4 54.8,-27.1 77.2,-49.7 18.2,-18.4 34.1,-40.8 47.2,-66.5 22.2,-43.6 28.8,-82.4 28.8,-82.8 l 0.3,-1.7 -1.4,-1 z M 308.5,192 c -12.8,25.1 -28.3,47 -46.1,65 -22.1,22.3 -47.7,38.7 -76.3,48.8 C 157.5,295.7 131.9,279.4 109.8,257.1 92,239.1 76.5,217.3 63.7,192.2 44.4,154.4 37.2,120.5 35.7,112.7 97.4,61 175.4,35.2 186.1,31.8 c 10.6,3.4 88.7,29.2 150.4,80.9 -1.5,7.7 -8.8,41.6 -28,79.3 z" class="st7"/></g></g></g></svg>