<svg xmlns="http://www.w3.org/2000/svg" xmlns:svg="http://www.w3.org/2000/svg" xmlns:xlink="http://www.w3.org/1999/xlink" id="svg4247" width="120" height="120" version="1.1"><metadata id="metadata4259"/><defs id="defs4257"><linearGradient id="linearGradient4761"><stop id="stop4763" offset="0" style="stop-color:#1a1a1a;stop-opacity:1"/><stop id="stop4765" offset="1" style="stop-color:#1a1a1a;stop-opacity:0"/></linearGradient><linearGradient id="linearGradient4769" x1="-409.45" x2="-57.601" y1="-20.943" y2="133.444" gradientTransform="matrix(-1.0090909,0,0,-1.0090909,-74.103737,135.33971)" gradientUnits="userSpaceOnUse" xlink:href="#linearGradient4761"/><clipPath id="clipPath16" clipPathUnits="userSpaceOnUse"><path id="path18" d="m 0,0 275.05,0 0,269.777 L 0,269.777 0,0 Z"/></clipPath><circle id="SVGID_1_" cx="618" cy="618" r="585.6"/><linearGradient id="linear-gradient" x1="129.11" x2="19.11" y1="130.39" y2="21.89" gradientTransform="matrix(1,0,0,-1,14.551141,138.67542)" gradientUnits="userSpaceOnUse"><stop id="stop860" offset=".09" stop-color="#00edd3"/><stop id="stop862" offset=".41" stop-color="#1b456e"/></linearGradient><linearGradient id="linear-gradient-2" x1="129.14" x2="52.14" y1="131.85" y2="53.85" gradientTransform="matrix(1,0,0,-1,14.551141,138.67542)" gradientUnits="userSpaceOnUse"><stop id="stop865" offset=".4" stop-color="#00edd3"/><stop id="stop867" offset=".89" stop-color="#1b456e"/></linearGradient></defs><path id="path4251-6" d="M 6.6612254,48.073886 C 14.074737,18.341792 44.19189,0.24725348 73.930899,7.6616275 103.65782,15.074269 121.75447,45.189649 114.33749,74.920005 106.92746,104.65554 76.810279,122.75183 47.079931,115.33918 17.342646,107.92654 -0.7522758,77.807711 6.6612254,48.073886 Z" style="fill:url(#linearGradient4769);fill-opacity:1;stroke:none;stroke-opacity:1"/><path id="path4251" d="M 113.35374,73.305173 C 106.00702,102.76941 76.161184,120.70094 46.690076,113.35336 17.231001,106.0075 -0.70262839,76.163426 6.6475295,46.700911 13.990812,17.233241 43.836647,-0.70001494 73.29916,6.6458482 c 29.46939,7.3458628 47.4013,37.1933738 40.05458,66.6593248 z" style="fill:#fff;stroke:none;stroke-opacity:1;fill-opacity:1"/><style id="style5548"/><path id="path6359" d="M 115,59.999706 C 115,90.375523 90.376003,115.00004 60.000335,115.00004 29.624333,115.00004 5,90.375523 5,59.999706 5,29.624223 29.624333,5.0000396 60.000335,5.0000396 90.375668,5.0000396 115,29.624223 115,59.999706" style="fill:#fff;fill-opacity:1;stroke:#000;stroke-opacity:1;stroke-width:.5;stroke-miterlimit:4;stroke-dasharray:none;opacity:.5"/><g id="g2902" transform="matrix(0.03746356,0,0,0.03746356,-184.85639,35.255879)"><path style="fill:#f3ba2f" id="path848-62" d="m 6050.3356,461.00616 485.52,-485.52 485.75,485.73 282.5,-282.5 -768.25,-768.23 -768,768 282.49,282.5 m -764.49,199.5 282.51,-282.55 282.49,282.49 -282.51,282.51 z m 764.48,199.51 485.52,485.49004 485.74,-485.72004 282.65,282.35004 -0.14,0.15 -768.25,768.22 -768,-768 -0.4,-0.4 282.91,-282.12004 m 1170.49,-199.36 282.51,-282.51 282.49,282.49 -282.5,282.51 z" class="cls-1"/><path style="fill:#f3ba2f" id="path850-6" d="m 6822.3756,660.33616 h 0.12 l -286.64,-286.66 -211.87,211.81 v 0 l -24.34,24.35 -50.2,50.21 -0.4,0.39 0.4,0.41 286.41,286.45 286.66,-286.66 0.14,-0.16 -0.26,-0.14" class="cls-1"/></g></svg>