<svg xmlns="http://www.w3.org/2000/svg" xmlns:svg="http://www.w3.org/2000/svg" xmlns:xlink="http://www.w3.org/1999/xlink" id="svg4247" width="120" height="120" version="1.1"><metadata id="metadata4259"/><defs id="defs4257"><linearGradient id="linearGradient4761"><stop id="stop4763" offset="0" style="stop-color:#1a1a1a;stop-opacity:1"/><stop id="stop4765" offset="1" style="stop-color:#1a1a1a;stop-opacity:0"/></linearGradient><linearGradient id="linearGradient4769" x1="-409.45" x2="-57.601" y1="-20.943" y2="133.444" gradientTransform="matrix(-1.0090909,0,0,-1.0090909,-74.103737,135.33971)" gradientUnits="userSpaceOnUse" xlink:href="#linearGradient4761"/><clipPath id="clipPath16" clipPathUnits="userSpaceOnUse"><path id="path18" d="m 0,0 275.05,0 0,269.777 L 0,269.777 0,0 Z"/></clipPath><circle id="SVGID_1_" cx="618" cy="618" r="585.6"/></defs><path id="path4251-6" d="M 6.6612254,48.073886 C 14.074737,18.341792 44.19189,0.24725348 73.930899,7.6616275 103.65782,15.074269 121.75447,45.189649 114.33749,74.920005 106.92746,104.65554 76.810279,122.75183 47.079931,115.33918 17.342646,107.92654 -0.7522758,77.807711 6.6612254,48.073886 Z" style="fill:url(#linearGradient4769);fill-opacity:1;stroke:none;stroke-opacity:1"/><path id="path4251" d="M 113.35374,73.305173 C 106.00702,102.76941 76.161184,120.70094 46.690076,113.35336 17.231001,106.0075 -0.70262839,76.163426 6.6475295,46.700911 13.990812,17.233241 43.836647,-0.70001494 73.29916,6.6458482 c 29.46939,7.3458628 47.4013,37.1933738 40.05458,66.6593248 z" style="fill:#fff;stroke:none;stroke-opacity:1;fill-opacity:1"/><path id="path4985" d="m 56.785734,74.692498 3.57241,-13.45166 8.457786,-3.089967 2.103756,-7.90549 -0.07183,-0.196109 -8.325488,3.041524 5.998561,-22.586923 -17.012125,0 -7.844734,29.476456 -6.549806,2.392728 -2.164226,8.150041 6.544795,-2.390723 -4.623452,17.371832 45.276019,0 2.902561,-10.811709 -28.264228,0" style="fill:#fff"/><path id="path5145" d="M 77.899062,41.210625 C 75.231563,34.431875 68.542187,33.82 60.752813,35.3325 l -2.774063,-9.669688 -5.885,1.687813 2.701875,9.41875 c -1.546875,0.44 -3.12125,0.928125 -4.685313,1.409375 l -2.715625,-9.480625 -5.881562,1.684375 2.767187,9.669688 c -1.265,0.391875 -2.509375,0.776875 -3.729687,1.127499 l -0.01031,-0.03437 -8.119375,2.327187 1.804688,6.290625 c 0,0 4.324375,-1.33375 4.272812,-1.230625 2.385625,-0.684062 3.557813,0.477812 4.125,1.60875 l 3.1625,11.01375 c 0.161563,-0.04469 0.378125,-0.09969 0.6325,-0.1375 l -0.622187,0.17875 4.424062,15.434375 c 0.11,0.780313 0.01375,2.10375 -1.65,2.585 0.09281,0.04469 -4.283125,1.22375 -4.283125,1.22375 l 0.849063,7.366563 7.65875,-2.2 c 1.426562,-0.402188 2.835937,-0.780313 4.214375,-1.16875 l 2.808437,9.779687 5.878125,-1.684375 -2.774062,-9.676562 a 225.98125,225.98125 0 0 0 4.71625,-1.30625 L 70.395,91.185 l 5.888437,-1.687812 -2.798125,-9.7625 c 9.731563,-3.406563 15.943125,-7.885625 14.138438,-17.428125 -1.450625,-7.679375 -5.92625,-10.01 -11.931563,-9.74875 2.915,-2.715625 4.169688,-6.386875 2.206875,-11.34375 z M 75.664688,64.4825 c 2.096875,7.311563 -10.656251,10.068438 -14.64375,11.216562 L 57.305,62.739688 c 3.9875,-1.144688 16.17,-5.878126 18.35625,1.74625 z M 67.682813,46.985625 c 1.904374,6.651563 -8.755313,8.86875 -12.079375,9.820938 L 52.234688,45.05375 c 3.320625,-0.952187 13.457812,-5.001562 15.448125,1.935313 z" style="fill:#fff;fill-rule:nonzero"/><style id="style5548"/><path id="path6359" d="M 115,59.999706 C 115,90.375523 90.376003,115.00004 60.000335,115.00004 29.624333,115.00004 5,90.375523 5,59.999706 5,29.624223 29.624333,5.0000396 60.000335,5.0000396 90.375668,5.0000396 115,29.624223 115,59.999706" style="fill:#fff;fill-opacity:1;stroke:#000;stroke-opacity:1;stroke-width:.5;stroke-miterlimit:4;stroke-dasharray:none;opacity:.5"/><g id="g232" transform="matrix(0.29653365,0,0,0.29653365,-22.859927,-0.55909613)" style="fill-rule:nonzero"><g id="g212" transform="matrix(0.75933863,0,0,0.75933863,175.51486,31.257923)"><path id="path202" d="m 5.922,222.449 132.516,-70.717 130.807,70.204 -130.694,70.778 z" style="fill:#009f42"/><path id="path204" d="m 5.922,222.449 132.516,-70.717 130.807,70.204 -130.694,70.778 z" style="fill:#01c853"/><path id="path206" d="m 138.438,151.732 130.807,70.204 -130.694,70.778 z" style="fill:#009f42"/><path id="path208" d="M 138.438,233.295 269.245,221.936 138.551,292.714 Z" style="fill:#007831"/><path id="path210" d="M 138.438,233.295 5.922,222.449 138.324,292.714 Z" style="fill:#009f42"/></g><g id="g224" transform="matrix(0.729502,0,0,0.729502,179.53407,37.413358)"><path id="path214" d="m 0.639,242.684 c 48.316,25.628 98.662,52.49 137.642,73.259 L 274.799,242.704 C 225.37,316.154 184.197,377.25 138.281,444.873 92.307,377.391 41.508,302.906 0.639,242.684 Z" style="fill:#009f42"/><path id="path216" d="m 0.639,242.684 c 48.316,25.628 98.662,52.49 137.642,73.259 L 274.799,242.704 C 225.37,316.154 184.197,377.25 138.281,444.873 92.307,377.391 41.508,302.906 0.639,242.684 Z" style="fill:#01c853"/><g id="g222" style="fill:#009f42"><path id="path218" d="M 138.281,315.943 274.799,242.704 C 225.37,316.154 138.281,444.873 138.281,444.873 Z"/><path id="path220" d="M 138.281,315.943 274.799,242.704 C 225.37,316.154 184.197,377.25 138.281,444.873 Z"/></g></g><g id="g230" transform="matrix(0.729502,0,0,0.729502,180,38.0509)"><path id="path226" d="M 137.616,128.155 0.016,200.612 137.018,0 274.108,201.051 Z" style="fill:#01c853"/><path id="path228" d="M 138.254,129.029 137.657,0.874 274.747,201.925 Z" transform="translate(-0.638702,-0.873941)" style="fill:#009f42"/></g></g></svg>