<svg xmlns="http://www.w3.org/2000/svg" xmlns:svg="http://www.w3.org/2000/svg" xmlns:xlink="http://www.w3.org/1999/xlink" id="svg4247" x="0" y="0" version="1.1" viewBox="0 0 120 120" xml:space="preserve" style="enable-background:new 0 0 120 120"><style type="text/css">.st0{fill:url(#path4251-6_1_)}.st1,.st2{fill:#fff}.st2{opacity:.5;stroke:#000;stroke-width:.5;enable-background:new}.st3{fill:#00aaf6}</style><linearGradient id="path4251-6_1_" x1="-887.303" x2="-535.455" y1="832.576" y2="678.189" gradientTransform="matrix(-1.0091 0 0 1.0091 -566.331 -660.8148)" gradientUnits="userSpaceOnUse"><stop offset="0" style="stop-color:#1a1a1a"/><stop offset="1" style="stop-color:#1a1a1a;stop-opacity:0"/></linearGradient><path id="path4251-6" d="M6.7,48.1C14.1,18.3,44.2,0.2,73.9,7.7	c29.7,7.4,47.8,37.5,40.4,67.3c-7.4,29.7-37.5,47.8-67.3,40.4C17.3,107.9-0.8,77.8,6.7,48.1z" class="st0"/><path id="path4251" d="M113.4,73.3c-7.3,29.5-37.2,47.4-66.7,40	C17.2,106-0.7,76.2,6.6,46.7C14,17.2,43.8-0.7,73.3,6.6C102.8,14,120.7,43.8,113.4,73.3z" class="st1"/><path id="path4985" d="M56.8,74.7l3.6-13.5l8.5-3.1l2.1-7.9L70.8,50l-8.3,3l6-22.6	h-17L43.7,60l-6.5,2.4L35,70.5l6.5-2.4l-4.6,17.4h45.3L85,74.7H56.8" class="st1"/><path id="path5145" d="M77.9,41.2c-2.7-6.8-9.4-7.4-17.1-5.9L58,25.7l-5.9,1.7	l2.7,9.4c-1.5,0.4-3.1,0.9-4.7,1.4l-2.7-9.5l-5.9,1.7l2.8,9.7c-1.3,0.4-2.5,0.8-3.7,1.1l0,0l-8.1,2.3l1.8,6.3c0,0,4.3-1.3,4.3-1.2	c2.4-0.7,3.6,0.5,4.1,1.6l3.2,11c0.2,0,0.4-0.1,0.6-0.1l-0.6,0.2l4.4,15.4c0.1,0.8,0,2.1-1.7,2.6c0.1,0-4.3,1.2-4.3,1.2l0.8,7.4	l7.7-2.2c1.4-0.4,2.8-0.8,4.2-1.2l2.8,9.8l5.9-1.7l-2.8-9.7c1.6-0.4,3.1-0.9,4.7-1.3l2.8,9.6l5.9-1.7l-2.8-9.8	c9.7-3.4,15.9-7.9,14.1-17.4c-1.5-7.7-5.9-10-11.9-9.7C78.6,49.8,79.9,46.2,77.9,41.2L77.9,41.2z M75.7,64.5	C77.8,71.8,65,74.6,61,75.7l-3.7-13C61.3,61.6,73.5,56.9,75.7,64.5L75.7,64.5z M67.7,47c1.9,6.7-8.8,8.9-12.1,9.8l-3.4-11.8	C55.6,44.1,65.7,40.1,67.7,47L67.7,47z" class="st1"/><path id="path6359" d="M115,60c0,30.4-24.6,55-55,55C29.6,115,5,90.4,5,60	C5,29.6,29.6,5,60,5C90.4,5,115,29.6,115,60" class="st2"/><g><path d="M99.8,25.7L83.7,95.5H65.6l7.1-30.8H46.2l-7.1,30.8H21l16.1-69.8h18.1l-5.9,25.7h26.5l5.9-25.7H99.8z" class="st3"/></g></svg>