<svg xmlns="http://www.w3.org/2000/svg" xmlns:svg="http://www.w3.org/2000/svg" xmlns:xlink="http://www.w3.org/1999/xlink" id="svg4247" width="120" height="120" version="1.1"><metadata id="metadata4259"/><defs id="defs4257"><linearGradient id="linearGradient4761"><stop id="stop4763" offset="0" style="stop-color:#1a1a1a;stop-opacity:1"/><stop id="stop4765" offset="1" style="stop-color:#1a1a1a;stop-opacity:0"/></linearGradient><linearGradient id="linearGradient4769" x1="-409.45" x2="-57.601" y1="-20.943" y2="133.444" gradientTransform="matrix(-1.0090909,0,0,-1.0090909,-74.103737,135.33971)" gradientUnits="userSpaceOnUse" xlink:href="#linearGradient4761"/><clipPath id="clipPath16" clipPathUnits="userSpaceOnUse"><path id="path18" d="m 0,0 275.05,0 0,269.777 L 0,269.777 0,0 Z"/></clipPath><circle id="SVGID_1_" cx="618" cy="618" r="585.6"/><linearGradient id="linear-gradient" x1="129.11" x2="19.11" y1="130.39" y2="21.89" gradientTransform="matrix(1,0,0,-1,14.551141,138.67542)" gradientUnits="userSpaceOnUse"><stop id="stop860" offset=".09" stop-color="#00edd3"/><stop id="stop862" offset=".41" stop-color="#1b456e"/></linearGradient><linearGradient id="linear-gradient-2" x1="129.14" x2="52.14" y1="131.85" y2="53.85" gradientTransform="matrix(1,0,0,-1,14.551141,138.67542)" gradientUnits="userSpaceOnUse"><stop id="stop865" offset=".4" stop-color="#00edd3"/><stop id="stop867" offset=".89" stop-color="#1b456e"/></linearGradient></defs><path id="path4251-6" d="M 6.6612254,48.073886 C 14.074737,18.341792 44.19189,0.24725348 73.930899,7.6616275 103.65782,15.074269 121.75447,45.189649 114.33749,74.920005 106.92746,104.65554 76.810279,122.75183 47.079931,115.33918 17.342646,107.92654 -0.7522758,77.807711 6.6612254,48.073886 Z" style="fill:url(#linearGradient4769);fill-opacity:1;stroke:none;stroke-opacity:1"/><path id="path4251" d="M 113.35374,73.305173 C 106.00702,102.76941 76.161184,120.70094 46.690076,113.35336 17.231001,106.0075 -0.70262839,76.163426 6.6475295,46.700911 13.990812,17.233241 43.836647,-0.70001494 73.29916,6.6458482 c 29.46939,7.3458628 47.4013,37.1933738 40.05458,66.6593248 z" style="fill:#fff;stroke:none;stroke-opacity:1;fill-opacity:1"/><style id="style5548"/><path id="path6359" d="M 115,59.999706 C 115,90.375523 90.376003,115.00004 60.000335,115.00004 29.624333,115.00004 5,90.375523 5,59.999706 5,29.624223 29.624333,5.0000396 60.000335,5.0000396 90.375668,5.0000396 115,29.624223 115,59.999706" style="fill:#fff;fill-opacity:1;stroke:#000;stroke-opacity:1;stroke-width:.5;stroke-miterlimit:4;stroke-dasharray:none;opacity:.5"/><g id="g2721" transform="matrix(0.5804275,0,0,0.5804275,16.728469,31.747469)"><path id="path874" d="m 0.55118946,48.573319 a 74.000106,74.000106 0 0 0 148.00000054,0.25 v -0.56 a 72.67,72.67 0 0 0 -2,-16.9 7.95,7.95 0 0 0 -15.47,3.63 v 0 a 58.22,58.22 0 1 1 -43.060001,-42.9 7.94,7.94 0 0 0 9.53,-5.9 7.83,7.83 0 0 0 -5.85,-9.49 73.91,73.91 0 0 0 -89.1499995,54.66 75.71,75.71 0 0 0 -2.00000004,17.21 z" style="fill:url(#linear-gradient)"/><path id="path876" d="m 112.13119,-5.886681 c -0.13,0.13 -0.19,0.26 -0.26,0.32 a 11.86,11.86 0 0 0 -3.18,7.07 v 1.27 c 0,0.32 -0.06,0.57 -0.06,0.89 a 21.33,21.33 0 0 1 -23.380001,19.16 20.63,20.63 0 0 1 -2.8,-0.44 12,12 0 0 1 -1.6,-0.45 25.36,25.36 0 0 0 -6.94,-0.76 27.89,27.89 0 0 0 -18.36,7.38 c -0.25,0.25 -0.57,0.45 -0.83,0.76 a 27.74,27.74 0 1 0 39.19,39.21 28.21,28.21 0 0 0 3.12,-3.75 27.8,27.8 0 0 0 4.210001,-22.34 14.3,14.3 0 0 1 -0.39,-1.53 c 0,-0.07 -0.06,-0.13 -0.06,-0.26 a 21.35,21.35 0 0 1 16.05,-25.65 16,16 0 0 1 3,-0.44 l 0.44,-0.07 a 10,10 0 0 1 1.34,-0.06 h 0.13 a 12,12 0 0 0 7.32,-3.44 c 0.45,-0.51 0.9,-1 1.28,-1.53 a 11.85,11.85 0 0 0 -2.87,-16.61 12,12 0 0 0 -15.35,1.27 z" style="fill:url(#linear-gradient-2)"/></g></svg>