<svg xmlns="http://www.w3.org/2000/svg" xmlns:svg="http://www.w3.org/2000/svg" xmlns:xlink="http://www.w3.org/1999/xlink" id="svg4247" width="120" height="120" version="1.1"><metadata id="metadata4259"/><defs id="defs4257"><linearGradient id="linearGradient4761"><stop style="stop-color:#1a1a1a;stop-opacity:1" id="stop4763" offset="0"/><stop style="stop-color:#1a1a1a;stop-opacity:0" id="stop4765" offset="1"/></linearGradient><linearGradient id="linearGradient4769" x1="-409.45" x2="-57.601" y1="-20.943" y2="133.444" gradientTransform="matrix(-1.0090909,0,0,-1.0090909,-74.103737,135.33971)" gradientUnits="userSpaceOnUse" xlink:href="#linearGradient4761"/></defs><path style="fill:url(#linearGradient4769);fill-opacity:1;stroke:none;stroke-opacity:1" id="path4251-6" d="M 6.6612254,48.073886 C 14.074737,18.341792 44.19189,0.24725348 73.930899,7.6616275 103.65782,15.074269 121.75447,45.189649 114.33749,74.920005 106.92746,104.65554 76.810279,122.75183 47.079931,115.33918 17.342646,107.92654 -0.7522758,77.807711 6.6612254,48.073886 Z"/><path style="fill:#fff;stroke:none;stroke-opacity:1;fill-opacity:1" id="path4251" d="M 113.35374,73.305173 C 106.00702,102.76941 76.161184,120.70094 46.690076,113.35336 17.231001,106.0075 -0.70262839,76.163426 6.6475295,46.700911 13.990812,17.233241 43.836647,-0.70001494 73.29916,6.6458482 c 29.46939,7.3458628 47.4013,37.1933738 40.05458,66.6593248 z"/><path style="fill:#909090;fill-opacity:1" id="path4981" d="M 115,59.999706 C 115,90.375523 90.376003,115.00004 60.000335,115.00004 29.624333,115.00004 5,90.375523 5,59.999706 5,29.624223 29.624333,5.0000396 60.000335,5.0000396 90.375668,5.0000396 115,29.624223 115,59.999706"/><path style="fill:#fff" id="path4985" d="m 56.785734,74.692498 3.57241,-13.45166 8.457786,-3.089967 2.103756,-7.90549 -0.07183,-0.196109 -8.325488,3.041524 5.998561,-22.586923 -17.012125,0 -7.844734,29.476456 -6.549806,2.392728 -2.164226,8.150041 6.544795,-2.390723 -4.623452,17.371832 45.276019,0 2.902561,-10.811709 -28.264228,0"/></svg>