<svg xmlns="http://www.w3.org/2000/svg" xmlns:svg="http://www.w3.org/2000/svg" xmlns:xlink="http://www.w3.org/1999/xlink" width="120" height="120" version="1.1"><rect id="backgroundrect" width="100%" height="100%" x="0" y="0" fill="none" stroke="none"/><metadata id="metadata4259"/><defs id="defs4257"><linearGradient id="linearGradient4761"><stop id="stop4763" offset="0" style="stop-color:#1a1a1a;stop-opacity:1"/><stop id="stop4765" offset="1" style="stop-color:#1a1a1a;stop-opacity:0"/></linearGradient><linearGradient id="linearGradient4769" x1="-409.45" x2="-57.601" y1="-20.943" y2="133.444" gradientTransform="matrix(-1.0090909,0,0,-1.0090909,-74.103737,135.33971)" gradientUnits="userSpaceOnUse" xlink:href="#linearGradient4761"/><clipPath id="clipPath16" clipPathUnits="userSpaceOnUse"><path id="path18" d="m 0,0 275.05,0 0,269.777 L 0,269.777 0,0 Z"/></clipPath><circle id="SVGID_1_" cx="618" cy="618" r="585.6"/></defs><style id="style5548"/><g class="currentLayer"><title>Layer 1</title><path id="path4251-6" d="M 6.6612254,48.073886 C 14.074737,18.341792 44.19189,0.24725348 73.930899,7.6616275 103.65782,15.074269 121.75447,45.189649 114.33749,74.920005 106.92746,104.65554 76.810279,122.75183 47.079931,115.33918 17.342646,107.92654 -0.7522758,77.807711 6.6612254,48.073886 Z" style="fill:url(#linearGradient4769);fill-opacity:1;stroke:none;stroke-opacity:1"/><path id="path4251" d="M 113.35374,73.305173 C 106.00702,102.76941 76.161184,120.70094 46.690076,113.35336 17.231001,106.0075 -0.70262839,76.163426 6.6475295,46.700911 13.990812,17.233241 43.836647,-0.70001494 73.29916,6.6458482 c 29.46939,7.3458628 47.4013,37.1933738 40.05458,66.6593248 z" style="fill:#fff;stroke:none;stroke-opacity:1;fill-opacity:1"/><path id="path4985" d="m 56.785734,74.692498 3.57241,-13.45166 8.457786,-3.089967 2.103756,-7.90549 -0.07183,-0.196109 -8.325488,3.041524 5.998561,-22.586923 -17.012125,0 -7.844734,29.476456 -6.549806,2.392728 -2.164226,8.150041 6.544795,-2.390723 -4.623452,17.371832 45.276019,0 2.902561,-10.811709 -28.264228,0" style="fill:#fff"/><path id="path5145" d="M 77.899062,41.210625 C 75.231563,34.431875 68.542187,33.82 60.752813,35.3325 l -2.774063,-9.669688 -5.885,1.687813 2.701875,9.41875 c -1.546875,0.44 -3.12125,0.928125 -4.685313,1.409375 l -2.715625,-9.480625 -5.881562,1.684375 2.767187,9.669688 c -1.265,0.391875 -2.509375,0.776875 -3.729687,1.127499 l -0.01031,-0.03437 -8.119375,2.327187 1.804688,6.290625 c 0,0 4.324375,-1.33375 4.272812,-1.230625 2.385625,-0.684062 3.557813,0.477812 4.125,1.60875 l 3.1625,11.01375 c 0.161563,-0.04469 0.378125,-0.09969 0.6325,-0.1375 l -0.622187,0.17875 4.424062,15.434375 c 0.11,0.780313 0.01375,2.10375 -1.65,2.585 0.09281,0.04469 -4.283125,1.22375 -4.283125,1.22375 l 0.849063,7.366563 7.65875,-2.2 c 1.426562,-0.402188 2.835937,-0.780313 4.214375,-1.16875 l 2.808437,9.779687 5.878125,-1.684375 -2.774062,-9.676562 a 225.98125,225.98125 0 0 0 4.71625,-1.30625 L 70.395,91.185 l 5.888437,-1.687812 -2.798125,-9.7625 c 9.731563,-3.406563 15.943125,-7.885625 14.138438,-17.428125 -1.450625,-7.679375 -5.92625,-10.01 -11.931563,-9.74875 2.915,-2.715625 4.169688,-6.386875 2.206875,-11.34375 z M 75.664688,64.4825 c 2.096875,7.311563 -10.656251,10.068438 -14.64375,11.216562 L 57.305,62.739688 c 3.9875,-1.144688 16.17,-5.878126 18.35625,1.74625 z M 67.682813,46.985625 c 1.904374,6.651563 -8.755313,8.86875 -12.079375,9.820938 L 52.234688,45.05375 c 3.320625,-0.952187 13.457812,-5.001562 15.448125,1.935313 z" style="fill:#fff;fill-rule:nonzero"/><path id="path6359" d="M 115,59.999706 C 115,90.375523 90.376003,115.00004 60.000335,115.00004 29.624333,115.00004 5,90.375523 5,59.999706 5,29.624223 29.624333,5.0000396 60.000335,5.0000396 90.375668,5.0000396 115,29.624223 115,59.999706" style="fill:#fff;fill-opacity:1;stroke:#000;stroke-opacity:1;stroke-width:.5;stroke-miterlimit:4;stroke-dasharray:none;opacity:.5"/><g id="surface1"><path id="svg_3" d="M 53.8133 115.462 C 27.95 112.451 7.74175 92.0262 5.01675 66.1529 C 2.33492 40.6959 18.2319 16.1682 42.5759 8.20188 C 76.1501 -2.78383 111.118 19.8764 114.819 55.0167 C 117.67 82.0931 99.6977 107.618 73.2027 114.131 C 67.1176 115.624 59.6217 116.141 53.8133 115.462 Z M 41.2157 81.8486 L 47.5085 59.0155 L 59.7688 72.6865 L 71.7451 59.009 L 78.3117 81.8486 L 87.6422 81.8486 L 77.6298 37.7806 L 59.7688 58.2223 L 41.8076 37.7696 L 31.8055 81.8523 Z M 62.9644 42.329 C 66.7049 38.685 70.0476 36.0032 74.6033 32.984 C 76.6997 31.5981 77.1739 31.0632 76.3155 31.0632 C 75.1235 31.0632 66.5505 36.8468 61.7108 40.9109 L 58.9324 43.2481 L 57.5787 41.7978 C 56.8361 41.001 54.9115 38.911 53.3032 37.1593 C 51.6948 35.4039 50.0681 33.7671 49.6876 33.5153 C 49.0636 33.1063 48.923 33.1099 48.2594 33.5474 C 47.8495 33.813 47.5196 34.2983 47.5196 34.6246 C 47.5196 36.6134 52.6782 43.2729 55.77 45.2691 C 58.143 46.8058 58.5271 46.6477 62.9644 42.329 Z M 62.9644 42.329" style="stroke:none;fill-rule:nonzero;fill:#fe9517;fill-opacity:1"/></g></g></svg>