<svg xmlns="http://www.w3.org/2000/svg" xmlns:svg="http://www.w3.org/2000/svg" xmlns:xlink="http://www.w3.org/1999/xlink" id="svg4247" width="120" height="120" version="1.1"><metadata id="metadata4259"/><defs id="defs4257"><linearGradient id="linearGradient4761"><stop style="stop-color:#1a1a1a;stop-opacity:1" id="stop4763" offset="0"/><stop style="stop-color:#1a1a1a;stop-opacity:0" id="stop4765" offset="1"/></linearGradient><linearGradient id="linearGradient4769" x1="-409.45" x2="-57.601" y1="-20.943" y2="133.444" gradientTransform="matrix(-1.0090909,0,0,-1.0090909,-74.103737,135.33971)" gradientUnits="userSpaceOnUse" xlink:href="#linearGradient4761"/></defs><path style="fill:url(#linearGradient4769);fill-opacity:1;stroke:none;stroke-opacity:1" id="path4251-6" d="M 6.6612254,48.073886 C 14.074737,18.341792 44.19189,0.24725348 73.930899,7.6616275 103.65782,15.074269 121.75447,45.189649 114.33749,74.920005 106.92746,104.65554 76.810279,122.75183 47.079931,115.33918 17.342646,107.92654 -0.7522758,77.807711 6.6612254,48.073886 Z"/><g id="g16" transform="matrix(0.44642858,0,0,0.44642858,3.9285707,4.1964278)"><circle id="circle4" cx="125.6" cy="125" r="123.2" class="st0" style="fill:#e9e144"/><g id="g14"><path id="path6" d="m 187.4,97.7 c 1.1,5.5 1.2,10.9 0.7,16.2 -2.1,22 -18.2,35.6 -36.7,40.8 -9.4,2.6 -19,3.1 -28.6,3 -2.6,0 -5.2,0.1 -7.7,0 -1.8,-0.1 -2.4,0.6 -2.4,2.4 0.1,8.4 0,16.8 0.1,25.2 0,1.1 -0.1,2 -1.3,2.6 -11.7,6.6 -23.4,13.3 -35.1,20 -0.3,0.2 -0.7,0.3 -1.3,0.6 -0.1,-0.8 -0.2,-1.4 -0.2,-2 0,-14.1 0,-28.1 0,-42.2 0,-1.3 0.4,-2.1 1.6,-2.8 18.3,-10.5 36.5,-21.1 54.8,-31.7 1.3,-0.8 2.9,-1.2 4.4,-1.5 5.8,-0.9 10.7,-3.3 13.9,-8.5 0.4,-0.6 0.9,-1.1 1.5,-1.5 11.7,-6.7 23.5,-13.4 35.2,-20.1 0.2,-0.1 0.5,-0.2 1.1,-0.5 z"/><path id="path8" d="m 165,65.4 c -3.7,2.1 -7.1,4.1 -10.6,6.1 -7.1,4.1 -14.2,8.2 -21.3,12.1 -1.1,0.6 -2.5,1 -3.7,1 -4.8,0.1 -9.6,0.1 -14.5,0 -1.8,0 -2.5,0.5 -2.4,2.4 0.1,2.3 0.1,4.6 0,6.9 0,0.7 -0.5,1.7 -1.1,2 -11.9,6.9 -23.8,13.7 -35.7,20.5 -0.2,0.1 -0.4,0.1 -0.8,0.2 -0.1,-0.7 -0.1,-1.3 -0.1,-1.9 0,-18.8 0,-37.6 0,-56.4 0,-2.5 0.3,-2.7 2.7,-2.7 17.1,0 34.2,-0.1 51.3,0 12.3,0.1 24.1,2.5 34.9,8.8 0.4,0.2 0.7,0.5 1.3,1 z"/><path id="path10" d="m 37.6,142.8 c 25.4,-14.5 49.9,-28.6 75,-42.9 0,1.1 0,1.8 0,2.5 0,7.9 0.1,15.8 0,23.8 0,2 0.7,2.5 2.5,2.5 2.9,-0.1 5.9,0 9.3,0 -0.6,0.6 -0.8,0.9 -1.1,1 -17.2,9.9 -34.5,19.7 -51.7,29.6 -3.2,1.8 -6.2,3.9 -9.4,5.7 -0.5,0.3 -1.5,0.3 -1.8,0 -7.6,-7.3 -15,-14.6 -22.8,-22.2 z"/><path id="path12" d="m 212.7,78.5 c -20.2,11.6 -40.3,23 -60.7,34.7 0.7,-6.1 0.3,-11.6 -2,-16.8 -2.4,-5.3 -6.3,-8.8 -12.2,-10.9 3.1,-1.8 5.8,-3.4 8.5,-4.9 13.8,-7.9 27.6,-15.8 41.4,-23.7 1.7,-1 2.6,-0.9 4,0.5 6.4,6.5 13,13 19.5,19.4 0.4,0.6 0.8,1 1.5,1.7 z"/></g></g></svg>