<svg xmlns="http://www.w3.org/2000/svg" xmlns:svg="http://www.w3.org/2000/svg" xmlns:xlink="http://www.w3.org/1999/xlink" id="svg4247" width="120" height="120" version="1.1"><metadata id="metadata4259"/><defs id="defs4257"><linearGradient id="linearGradient4761"><stop id="stop4763" offset="0" style="stop-color:#1a1a1a;stop-opacity:1"/><stop id="stop4765" offset="1" style="stop-color:#1a1a1a;stop-opacity:0"/></linearGradient><linearGradient id="linearGradient4769" x1="-409.45" x2="-57.601" y1="-20.943" y2="133.444" gradientTransform="matrix(-1.0090909,0,0,-1.0090909,-74.103737,135.33971)" gradientUnits="userSpaceOnUse" xlink:href="#linearGradient4761"/><clipPath id="clipPath16" clipPathUnits="userSpaceOnUse"><path id="path18" d="m 0,0 275.05,0 0,269.777 L 0,269.777 0,0 Z"/></clipPath><circle id="SVGID_1_" cx="618" cy="618" r="585.6"/><mask id="mask" width="23.84" height="54.6" x="0" y="4.82" maskUnits="userSpaceOnUse"><g id="mask-2"><polygon style="fill:#fff;fill-rule:evenodd" id="path-1" points="0 4.82 23.84 4.82 23.84 59.42 0 59.42 0 4.82"/></g></mask></defs><path id="path4251-6" d="M 6.6612254,48.073886 C 14.074737,18.341792 44.19189,0.24725348 73.930899,7.6616275 103.65782,15.074269 121.75447,45.189649 114.33749,74.920005 106.92746,104.65554 76.810279,122.75183 47.079931,115.33918 17.342646,107.92654 -0.7522758,77.807711 6.6612254,48.073886 Z" style="fill:url(#linearGradient4769);fill-opacity:1;stroke:none;stroke-opacity:1"/><path id="path4251" d="M 113.35374,73.305173 C 106.00702,102.76941 76.161184,120.70094 46.690076,113.35336 17.231001,106.0075 -0.70262839,76.163426 6.6475295,46.700911 13.990812,17.233241 43.836647,-0.70001494 73.29916,6.6458482 c 29.46939,7.3458628 47.4013,37.1933738 40.05458,66.6593248 z" style="fill:#fff;stroke:none;stroke-opacity:1;fill-opacity:1"/><path id="path4985" d="m 56.785734,74.692498 3.57241,-13.45166 8.457786,-3.089967 2.103756,-7.90549 -0.07183,-0.196109 -8.325488,3.041524 5.998561,-22.586923 -17.012125,0 -7.844734,29.476456 -6.549806,2.392728 -2.164226,8.150041 6.544795,-2.390723 -4.623452,17.371832 45.276019,0 2.902561,-10.811709 -28.264228,0" style="fill:#fff"/><path id="path5145" d="M 77.899062,41.210625 C 75.231563,34.431875 68.542187,33.82 60.752813,35.3325 l -2.774063,-9.669688 -5.885,1.687813 2.701875,9.41875 c -1.546875,0.44 -3.12125,0.928125 -4.685313,1.409375 l -2.715625,-9.480625 -5.881562,1.684375 2.767187,9.669688 c -1.265,0.391875 -2.509375,0.776875 -3.729687,1.127499 l -0.01031,-0.03437 -8.119375,2.327187 1.804688,6.290625 c 0,0 4.324375,-1.33375 4.272812,-1.230625 2.385625,-0.684062 3.557813,0.477812 4.125,1.60875 l 3.1625,11.01375 c 0.161563,-0.04469 0.378125,-0.09969 0.6325,-0.1375 l -0.622187,0.17875 4.424062,15.434375 c 0.11,0.780313 0.01375,2.10375 -1.65,2.585 0.09281,0.04469 -4.283125,1.22375 -4.283125,1.22375 l 0.849063,7.366563 7.65875,-2.2 c 1.426562,-0.402188 2.835937,-0.780313 4.214375,-1.16875 l 2.808437,9.779687 5.878125,-1.684375 -2.774062,-9.676562 a 225.98125,225.98125 0 0 0 4.71625,-1.30625 L 70.395,91.185 l 5.888437,-1.687812 -2.798125,-9.7625 c 9.731563,-3.406563 15.943125,-7.885625 14.138438,-17.428125 -1.450625,-7.679375 -5.92625,-10.01 -11.931563,-9.74875 2.915,-2.715625 4.169688,-6.386875 2.206875,-11.34375 z M 75.664688,64.4825 c 2.096875,7.311563 -10.656251,10.068438 -14.64375,11.216562 L 57.305,62.739688 c 3.9875,-1.144688 16.17,-5.878126 18.35625,1.74625 z M 67.682813,46.985625 c 1.904374,6.651563 -8.755313,8.86875 -12.079375,9.820938 L 52.234688,45.05375 c 3.320625,-0.952187 13.457812,-5.001562 15.448125,1.935313 z" style="fill:#fff;fill-rule:nonzero"/><style id="style5548"/><path id="path6359" d="M 115,59.999706 C 115,90.375523 90.376003,115.00004 60.000335,115.00004 29.624333,115.00004 5,90.375523 5,59.999706 5,29.624223 29.624333,5.0000396 60.000335,5.0000396 90.375668,5.0000396 115,29.624223 115,59.999706" style="fill:#fff;fill-opacity:1;stroke:#000;stroke-opacity:1;stroke-width:.5;stroke-miterlimit:4;stroke-dasharray:none;opacity:.5"/><g id="g128" transform="matrix(1.237272,0,0,1.237272,17.142879,18.169921)"><g id="Group-3"><g id="Fill-1-Clipped"><g id="g102" mask="url(#mask)"><path style="fill:#efe812" id="Fill-1" d="m 20,8.84 c 1.37,-1.56 2.63,-2.88 3.83,-4 -20.26,-0.65 -14.36,14 -21,28.87 -7.6,17.14 0.9,23.67 13.56,25.71 a 27.56,27.56 0 0 1 -4.28,-7 C 3.94,42.09 7.25,23.26 20,8.84"/></g></g></g><path style="fill:#ede70a" id="Fill-4" d="M 68.75,27.1 A 57.87,57.87 0 0 1 58.52,44.23 49.09,49.09 0 0 1 46.09,55 33.56,33.56 0 0 1 27.75,60.21 72.2,72.2 0 0 1 16.43,59.42 23.14,23.14 0 0 0 24,65.35 C 42.32,74.21 43.47,57.76 62.85,49.41 73.73,44.72 73.77,35.56 68.74,27.1"/><path style="fill:#ede70a" id="Fill-6" d="m 46.09,10 a 24.07,24.07 0 0 1 7.56,2.68 42.17,42.17 0 0 1 15.1,14.42 C 72.05,17.8 70.51,10.5 63.3,9.18 55.36,7.73 49.16,7.26 43.2,3.1 35.86,-2 29.42,-0.34 23.84,4.85 l 1.21,0.05 c 7.74,0.46 15.14,2 21,5.08"/><path style="fill:#dec21c" id="Fill-8" d="M 20,8.84 C 7.25,23.26 3.94,42.09 12.15,52.42 a 31.36,31.36 0 0 1 1.77,-28 C 20.83,12.9 34.7,7.9 46.09,10 40.19,6.88 32.79,5.38 25.09,4.92 L 23.88,4.86 C 22.64,6 21.38,7.28 20,8.84"/><path style="fill:#e5cb22" id="Fill-10" d="M 53.65,12.66 A 24.07,24.07 0 0 0 46.09,10 C 53.85,14.08 59,21 59,31.94 A 27.53,27.53 0 0 1 46.09,55 48.89,48.89 0 0 0 58.52,44.23 57.87,57.87 0 0 0 68.75,27.1 42.17,42.17 0 0 0 53.65,12.66"/><path style="fill:#cca727" id="Fill-12" d="M 46.09,10 C 34.7,7.9 20.83,12.9 13.92,24.37 a 31.33,31.33 0 0 0 -1.77,28.05 27.28,27.28 0 0 0 4.28,7 72.2,72.2 0 0 0 11.32,0.79 A 33.56,33.56 0 0 0 46.09,55 27.52,27.52 0 0 0 59,31.94 C 59,21 53.85,14.08 46.09,10 M 44.81,49.8 A 18.94,18.94 0 0 1 18.69,44.18 c -5.66,-8.73 -2.86,-20 5.63,-26 9.5,-6.75 21.68,-4.09 26.12,5.62 4.33,9.46 3.14,20.39 -5.63,26"/></g></svg>