<svg xmlns="http://www.w3.org/2000/svg" xmlns:svg="http://www.w3.org/2000/svg" xmlns:xlink="http://www.w3.org/1999/xlink" id="svg4247" width="120" height="120" version="1.1"><metadata id="metadata4259"/><defs id="defs4257"><linearGradient id="linearGradient4761"><stop id="stop4763" offset="0" style="stop-color:#1a1a1a;stop-opacity:1"/><stop id="stop4765" offset="1" style="stop-color:#1a1a1a;stop-opacity:0"/></linearGradient><linearGradient id="linearGradient4769" x1="-409.45" x2="-57.601" y1="-20.943" y2="133.444" gradientTransform="matrix(-1.0090909,0,0,-1.0090909,-74.103737,135.33971)" gradientUnits="userSpaceOnUse" xlink:href="#linearGradient4761"/><clipPath id="clipPath16" clipPathUnits="userSpaceOnUse"><path id="path18" d="m 0,0 275.05,0 0,269.777 L 0,269.777 0,0 Z"/></clipPath><circle id="SVGID_1_" cx="618" cy="618" r="585.6"/></defs><path id="path4251-6" d="M 6.6612254,48.073886 C 14.074737,18.341792 44.19189,0.24725348 73.930899,7.6616275 103.65782,15.074269 121.75447,45.189649 114.33749,74.920005 106.92746,104.65554 76.810279,122.75183 47.079931,115.33918 17.342646,107.92654 -0.7522758,77.807711 6.6612254,48.073886 Z" style="fill:url(#linearGradient4769);fill-opacity:1;stroke:none;stroke-opacity:1"/><path id="path4251" d="M 113.35374,73.305173 C 106.00702,102.76941 76.161184,120.70094 46.690076,113.35336 17.231001,106.0075 -0.70262839,76.163426 6.6475295,46.700911 13.990812,17.233241 43.836647,-0.70001494 73.29916,6.6458482 c 29.46939,7.3458628 47.4013,37.1933738 40.05458,66.6593248 z" style="fill:#fff;stroke:none;stroke-opacity:1;fill-opacity:1"/><path id="path4985" d="m 56.785734,74.692498 3.57241,-13.45166 8.457786,-3.089967 2.103756,-7.90549 -0.07183,-0.196109 -8.325488,3.041524 5.998561,-22.586923 -17.012125,0 -7.844734,29.476456 -6.549806,2.392728 -2.164226,8.150041 6.544795,-2.390723 -4.623452,17.371832 45.276019,0 2.902561,-10.811709 -28.264228,0" style="fill:#fff"/><path id="path5145" d="M 77.899062,41.210625 C 75.231563,34.431875 68.542187,33.82 60.752813,35.3325 l -2.774063,-9.669688 -5.885,1.687813 2.701875,9.41875 c -1.546875,0.44 -3.12125,0.928125 -4.685313,1.409375 l -2.715625,-9.480625 -5.881562,1.684375 2.767187,9.669688 c -1.265,0.391875 -2.509375,0.776875 -3.729687,1.127499 l -0.01031,-0.03437 -8.119375,2.327187 1.804688,6.290625 c 0,0 4.324375,-1.33375 4.272812,-1.230625 2.385625,-0.684062 3.557813,0.477812 4.125,1.60875 l 3.1625,11.01375 c 0.161563,-0.04469 0.378125,-0.09969 0.6325,-0.1375 l -0.622187,0.17875 4.424062,15.434375 c 0.11,0.780313 0.01375,2.10375 -1.65,2.585 0.09281,0.04469 -4.283125,1.22375 -4.283125,1.22375 l 0.849063,7.366563 7.65875,-2.2 c 1.426562,-0.402188 2.835937,-0.780313 4.214375,-1.16875 l 2.808437,9.779687 5.878125,-1.684375 -2.774062,-9.676562 a 225.98125,225.98125 0 0 0 4.71625,-1.30625 L 70.395,91.185 l 5.888437,-1.687812 -2.798125,-9.7625 c 9.731563,-3.406563 15.943125,-7.885625 14.138438,-17.428125 -1.450625,-7.679375 -5.92625,-10.01 -11.931563,-9.74875 2.915,-2.715625 4.169688,-6.386875 2.206875,-11.34375 z M 75.664688,64.4825 c 2.096875,7.311563 -10.656251,10.068438 -14.64375,11.216562 L 57.305,62.739688 c 3.9875,-1.144688 16.17,-5.878126 18.35625,1.74625 z M 67.682813,46.985625 c 1.904374,6.651563 -8.755313,8.86875 -12.079375,9.820938 L 52.234688,45.05375 c 3.320625,-0.952187 13.457812,-5.001562 15.448125,1.935313 z" style="fill:#fff;fill-rule:nonzero"/><style id="style5548"/><path id="path6359" d="M 115,59.999706 C 115,90.375523 90.376003,115.00004 60.000335,115.00004 29.624333,115.00004 5,90.375523 5,59.999706 5,29.624223 29.624333,5.0000396 60.000335,5.0000396 90.375668,5.0000396 115,29.624223 115,59.999706" style="fill:#fff;fill-opacity:1;stroke:#000;stroke-opacity:1;stroke-width:.5;stroke-miterlimit:4;stroke-dasharray:none;opacity:.5"/><g id="g1429" transform="matrix(0.86667163,0,0,0.86667163,9.2962924,8.2404456)"><path id="path1059" d="M 58.312589,10.22759 13.535848,35.103558 V 55.00433 l 77.306849,18.36995 v 6.12331 L 58.312589,98.25024 25.782478,80.26301 V 71.84345 L 13.535848,67.25096 V 86.00361 L 58.312589,111.645 103.08933,86.38632 V 66.10284 L 26.165185,47.7329 V 41.992287 L 58.312589,23.239635 91.608117,41.60958 v 8.03685 l 11.863923,4.97519 V 35.486265 Z" style="fill:#ed1e26;stroke:#221f20;stroke-width:1.53082871"/><g id="g1157" transform="matrix(0.38270719,0,0,0.38270719,-6.3649262,-12.734841)"><path id="path1061" d="m 172,37 c 0,0 5.25,-6.25 14,-3 8.75,3.25 12,26 12,26 0,0 0.5,4 0,14 0,0 8.5,-2 14,0 0,0 -6.75,2 -8,4 0,0 13,-1 19,2 6,3 9.6667,2.3333 9.6667,2.3333 0,0 -11,18.5834 -11,17.8334 C 221.6667,99.4167 219,102 219,102 l 8,1 c 0,0 0.25,2.5 -4,6 h -5 c 0,0 4,14 4,21 0,0 3,1 3,-14 0,0 5.5,3.25 4,14 0,0 -3.5,6.75 -2,9 1.5,2.25 6,-4 6,-4 0,0 1.6667,-9.6667 -2,-21.3333 0,0 -6,-27.6667 13,-42.6667 0,0 -9.75,16.5 -3,21 6.75,4.5 5,-13 5,-13 0,0 -2.25,-17.75 9,-24 0,0 -6,14.5 1,29 0,0 7.25,23.5 -3,38 -10.25,14.5 -15,16 -19,28 -4,12 3,10 3,10 0,0 4.25,-1.5 6,-10 0,0 -2,-6.75 6,-13 0,0 -4.5,7.75 -3,19 1.5,11.25 -12,26 -12,26 0,0 -5.25,4 -9,6 0,0 -2,12.25 -6,16 0,0 -1.25,23 -11,46 -9.75,23 -31,42 -31,42 0,0 -18,15.75 -41,26 -17.9713,8.0089 -30.4478,1.6706 -35.0445,-1.4839 -1.2862,-0.8827 -1.8305,-4.3911 -1.7596,-5.2494 0.3543,-4.2889 1.5023,-11.13 4.8041,-14.2667 0,0 3.25,-7.25 16,-21 0,0 7.25,-10.75 9,-35 v -21 c 0,0 -6.5,-3.5 -8,-10 -1.5,-6.5 1,-9 1,-9 0,0 2.25,-4 12,-7 0,0 -5.75,-3.5 -9,-15 0,0 -6.25,-10 -5,-17 0,0 -16,-10.75 -6,-31 0,0 4.5,-9.25 13,-13 0,0 -1.5,-11 3,-19 4.5,-8 8,-10 8,-10 0,0 5.25,-3.75 7,-4 l 5,3 h 10 c 0,0 -3.25,-5.75 -18,-7 0,0 -5,-4 17,-5 0,0 -18.25,-11.75 -8,-29 0,0 6.5,14 31,20 0,0 5,1.25 12,5 0,0 0.25,-19.25 -22,-35 z" style="fill:#221f20;stroke:#000;stroke-width:2"/><path id="path1063" d="m 104.6667,304.6667 c 1.7031,-3.6193 16,-21.3334 16,-21.3334 6.6666,-6 14.3333,-19.6666 14.3333,-19.6666 l -8.6667,7 C 133.3333,260.3333 134,224 134,224 c 24,7 22,1 22,1 0,0 -18.8333,0.5 -29,-13 0,0 -7.1667,-11 8,-14 l 1,5 v 1 h -4 l 1,2 c 0,0 13.6667,16.6667 45,12 31.3333,-4.6667 31.3333,-21 36,-26 l 6,-1 c 0,0 -8.3333,23 -26,30 0,0 4,3.3333 20,-9 0,0 -9.6667,41.3333 -20,52 0,0 -12,19.3333 -43,40 0,0 -27.6667,18.6667 -45.3333,10.6667 0,0 -3.6667,-4.3334 -1,-10 z" style="fill:#ca151f;stroke:#ed1e26;stroke-width:1"/><path id="path1065" d="m 199.5,224.75 c 0,0 -11.25,8.25 -24.5,8.25 -13.25,0 -32,-2.25 -32,-2.25 l -1,1.25 c 0,0 1.5,27.75 -2,33 -3.5,5.25 -8.25,13.5 -27,34 -2.75,4.25 -3.0023,8.2749 1.7965,10.4307 C 127.75,315.25 177.0808,274.1818 181.5,268.5 c 5.25,-6.75 18.25,-21.5 18,-43.75 z" style="fill:#ed1e26"/><path id="path1067" stroke="#ffffff00" d="m 151,239 c 0,0 8.5,-7.25 14,3 0,0 1.5,5.75 -8,22 -9.5,16.25 -31,41.25 -36,38 -5,-3.25 4.3333,-12.3333 4.3333,-12.3333 L 143,267 c 0,0 8,-10.5 7,-15 z" style="fill:#f79274;stroke-width:1"/><path id="path1069" stroke="#ffffff00" d="m 179,218 c 0,0 6.75,0.75 12,1 5.25,0.25 -8.5,4.75 -8.5,4.75 0,0 -24.5,3.5 -37.5,-0.75 -13,-4.25 -12,-10 -12,-10 0,0 0.75,-2.75 3,-2 2.25,0.75 5,2 5,2 0,0 9.75,4 12,4 2.25,0 8.75,3.25 26,1 z" style="fill:#ed1d25;stroke-width:1"/><path id="path1071" stroke="#ffffff00" d="m 167,222 c 0,0 0.5,2.5 -8,2 -8.5,-0.5 -14,-5 -14,-5 0,0 -3.5,-3.25 3,-3 0,0 4.75,4 17,5 3.9885,0.3256 2,1 2,1 z" style="fill:#f49678;stroke-width:1"/><path id="path1073" d="m 146,197 -2,-1 -5.625,3.25 C 138,206.75 140,206 140,206 l 0.625,-1 H 141 v 2 c 1.125,5.875 14,7 14,7 l 1,-1 v -4 l 0.25,-1.625 0.25,-0.25 0.875,6.5 C 166.875,218.875 178,215 178,215 l 0.875,-2.25 0.75,-2.625 L 180,210 v 4 c 10.625,-0.125 15,-5 15,-5 l 0.25,-3.25 0.75,-0.5 1,1.75 c 4.375,-1 11,-9 11,-9 l -2,-2 c 0,0 -27.875,14.25 -62,3 z" style="fill:#fff;stroke:#000;stroke-width:1"/><path id="path1075" d="m 209,172 c 0,0 -0.75,17.125 -40,24 0,0 -26.125,2.375 -37,-7 l -3,-6 2,-3 c 0,0 4.375,5 7,5 v 3 l 1,-1 v -2 c 0,0 2.75,3 14,4 l 2,2 v 1 l 1,-2 1,-1 c 0,0 13.5,1.375 23,-2 l 1,2 1,-1 v -2 c 0,0 12.625,-6.125 17,-11 l 1,4 v -4 -2 c 0,0 6.25,-4.25 7,-10 l 2,1 z" style="fill:#fdfdfd;stroke:#000;stroke-width:1"/><path id="path1077" d="m 127,167 c 0,0 -1.5,-0.5 -1,1 0.5,1.5 7.1667,4.8333 5,5 -2.1667,0.1667 -7,-3 -7,-3 0,0 13.1667,22.1667 51,14 0,0 20,-4.6667 32.5,-28 l 0.1667,-6.5 -2.1667,-0.8333 -0.8333,1 c 0,0 0.3333,3.5 -2.6667,11.3333 -3,7.8333 -25,17 -25,17 h -4 l 7,-6 c 0,0 -12.3333,-1.8333 -16,-7 0,0 -6,7.6667 -20,6 0,0 -7,1.3333 -17,-4 z" style="fill:#ca151f;stroke:#ed1e26;stroke-width:1"/><path id="path1079" d="m 158,172 c 0,0 6,-4.125 11,0 0,0 2.625,2.5 -3,6 0,0 -1,1.375 9,1 l 4,-1 -1,2 c 0,0 -3,2.5 -18,4 -15,1.5 -23,-5 -23,-5 0,0 -1.25,-1.375 0,-2 0,0 -0.875,-1.5 6,-1 l -1.25,-3 c 0,0 9.875,0.625 16.25,-1 z" style="fill:#ed1e26"/><path id="path1081" stroke="#ffffff00" d="m 160,178 c 0,0 -6,1 -8,0 -2,-1 0,-3 0,-3 0,0 3.5,-2.8333 9,1 0,0 0.6667,1.1667 -1,2 z" style="fill:#f79274;stroke-width:1"/><path id="path1083" d="m 169,136 c 0,0 -13.8333,-27.6667 -38,-15 -24.1667,12.6667 -12,33 -12,33 0,0 9.1667,14.1667 26,14 16.8333,-0.1667 17,-7 17,-7 l -1,-2 c 0,0 -6.1667,10.6667 -24,3 0,0 -14.6667,-6.3333 -4,-24 0,0 4.8333,-5.3333 13,-7 8.1667,-1.6667 18,9 18,9 z" style="fill:#fff;stroke:#000;stroke-width:1"/><path id="path1085" d="m 163,144 c 0,0 -3,4 -3,10 0,6 -12,7 -12,7 0,0 -10.1667,0.8333 -15,-7 -4.8333,-7.8333 3,-17 3,-17 0,0 6.5,-6 15,-3 8.5,3 11.6667,6.6667 12,10 z" style="fill:#ffff04;stroke:#000;stroke-width:1"/><path id="path1087" stroke="#ffffff00" d="m 158,153 c 0,0 -2.6667,6.1667 -14,6 0,0 -7,-1.6667 -8,-5 -1,-3.3333 4,-2 4,-2 0,0 0.8333,4 5,4 4.1667,0 9.3333,-1.3333 11,-3 1.6667,-1.6667 2,0 2,0 z" style="fill:#fcda00;stroke-width:1"/><path id="path1089" stroke="#ffffff00" d="m 136,141 c 0,0 -5.5,6.6667 0,14 l 4,-3 c 0,0 -1,-5.8333 0,-8 1,-2.1667 -4,-3 -4,-3 z" style="fill:#fdc50d;stroke-width:1"/><path id="path1091" d="m 140,145 -4.75,-2.5 c 0,0 1.75,-7.1667 10.75,-6.5 9,0.6667 12.6667,5.3333 13.3333,5.1667 0.6667,-0.1667 -2.1666,3 -2.1666,3 0,0 -5.5,-7.3334 -12.1667,-3.1667 -6.6667,4.1667 -5,4 -5,4 z" style="fill:#eaa319"/><path id="path1093" d="m 138,139 v 1 l 2,1 2,-1 2,-1 1,-2 -1,-1 -2,-1 -2,1 -1,1 z" style="fill:#ffff92"/><path id="path1095" d="m 151,154 h 2 l 1,1 -1,2 -2,1 h -2 -2 v -1 l 1,-1 1,-1 z" style="fill:#fdf583"/><path id="path1097" d="m 142,147 c 0,0 3.8333,-6.6667 9,-5 5.1667,1.6667 4,6 4,6 0,0 0.3333,3.5 -3,5 -3.3333,1.5 -8,0 -8,0 0,0 -1.1667,-1 -2,-2 -0.8333,-1 0,-4 0,-4 z" style="fill:#221f20;stroke:#000;stroke-width:1"/><path id="path1099" d="m 166,124 c 0,0 -9.25,-9.75 -22,-11 0,0 -10.25,0.5 -13,3 0,0 -0.75,-12 2,-15 0,0 3.5,-5.5 10,-5 6.5,0.5 17,17 17,17 0,0 2.75,3.75 6,4 3.25,0.25 6,-3 6,-3 0,0 3.75,-6 3,-14 l -6,4 c 0,0 -8.25,-9.5 -12,-11 -3.75,-1.5 5,-1 5,-1 0,0 6.5,0.75 8,3 0,0 3.25,0 -4,-5 0,0 25.25,-6 34,2 8.75,8 12.75,16.5 13,19 0,0 4.5,6.75 6,22 0,0 -10.5,7.5 -11,12 h -3 c 0,0 0,-4 -3,-8 -3,-4 10,-4 10,-4 0,0 3.5,1.5 3,2 0,0 1,-5.25 -11,-5 0,0 -3,-0.25 -6,3 0,0 -4.5,-2.75 -8,-2 0,0 13,-11 13,-15 0,-4 9.25,11 9,13 0,0 2.5,-0.75 0,-13 -2.5,-12.25 -14,-16 -14,-16 v 2 c 0,0 -13.5,-1.75 -17,6 0,0 10.75,-4.75 15,-2 0,0 -6,9.75 -14,12 0,0 -1.5,2 -5,-3 0,0 -8.25,10.25 -3,16 v 2 c 0,0 -5.5,-3 -4,-9 0,0 -0.25,-3.5 4,-9 0,0 -7,3.75 -8,9 z" style="fill:#ca151f;stroke:#ed1e26;stroke-width:1"/><path id="path1101" d="m 165.75,146.75 c 0,0 4.25,-10.75 15.25,-12.75 11,-2 17,6 17,6 0,0 7,7.25 0.5,17 -4.319,6.4785 -2.75,7.5 -17.5,11 0,0 -12.5,-0.75 -15,-8 -1.1391,-3.3033 -1.695,-5.891 -1.75,-8 -0.0658,-2.5198 1.5,-5.25 1.5,-5.25 z" style="fill:#fff;stroke:#000;stroke-width:1"/><path id="path1103" d="m 172,146 c 0,0 4.75,-6.25 10.5,-6.5 5.75,-0.25 10.5,3.5 10.5,3.5 0,0 5.25,5.5 3,12 -2.25,6.5 -7.5,8.25 -8,8 -0.5,-0.25 -8.5,3.75 -14,-2 -5.5,-5.75 -3.75,-10.25 -3.75,-10.25 0,0 1,-4.25 1.75,-4.75 z" style="fill:#221f20;stroke:#000;stroke-width:1"/><path id="path1105" d="m 194,154 c 0,0 -6.5,7.25 -15,6 0,0 -6.25,-2.5 -7,-7 -0.75,-4.5 3,-7 3,-7 0,0 0.75,-3.5 8,-5 7.25,-1.5 12,7 12,7 0,0 0.75,4.5 -1,6 z" style="fill:#ffff04;stroke:#000;stroke-width:1"/><path id="path1107" stroke="#ffffff00" d="m 192.5,153 c 0,0 -2.5113,5.1089 -10.8319,4.9978 0,0 -5.4339,-0.6092 -6.1681,-2.8311 -0.7342,-2.2219 2.5,-2 2.5,-2 0,0 1.3432,2.8314 4.4022,2.8314 3.0591,0 6.7075,-2.2205 7.9311,-3.3314 C 191.5569,151.5557 192.5,153 192.5,153 Z" style="fill:#fcda00;stroke-width:1"/><path id="path1109" stroke="#ffffff00" d="m 175.7946,145.9995 c 0,0 -4.3326,4.4456 -0.2946,9.3338 l 2.6667,-1.8333 c 0,0 -0.1695,-4.0566 0.5647,-5.5008 0.7341,-1.4443 -2.9368,-1.9997 -2.9368,-1.9997 z" style="fill:#fdc50d;stroke-width:1"/><path id="path1111" d="m 178.5,148.6667 -3.256,-1.6674 c 0,0 1.2848,-4.7771 7.8924,-4.3327 6.6076,0.4443 8.3741,3.7778 8.8636,3.6667 0.4894,-0.1111 -1.8333,2.3334 -1.8333,2.3334 0,0 -3.9389,-5.7774 -8.8334,-3 -4.8945,2.7774 -2.8333,3 -2.8333,3 z" style="fill:#eaa319"/><path id="path1113" d="m 177.263,144.6663 v 0.6666 l 1.4684,0.6666 1.4683,-0.6666 1.4684,-0.6666 0.7341,-1.3332 -0.7341,-0.6665 -1.4684,-0.6666 -1.4683,0.6666 -0.7342,0.6665 z" style="fill:#ffff92"/><path id="path1115" d="m 186.8073,154.6649 h 1.4684 l 0.7341,0.6666 -0.7341,1.3331 -1.4684,0.6666 h -1.4684 -1.4683 v -0.6666 l 0.7342,-0.6665 0.7341,-0.6666 z" style="fill:#fdf583"/><path id="path1117" d="m 179,152 c 0,0 1,-8.5 7,-5 6,3.5 -1,7 -1,7 0,0 -3.75,2.25 -6,-2 z" style="fill:#221f20;stroke:#000;stroke-width:1"/><path id="path1119" d="m 196,189 c 0,0 11.3333,-3.3333 17,-18 0,0 0.2422,-3.005 -0.5,-7.3125 -0.3609,-2.0944 -0.4107,-4.5947 -1.25,-5.9375 0,0 -0.9167,-14.0833 4.75,-16.75 5.6667,-2.6667 8,-8 8,-8 0,0 -3.6667,9 1,12 4.6667,3 8,-5 8,-5 0,0 5,-3.6667 3,-21 0,0 0,-3.3333 -2,-11 -2,-7.6667 -0.6667,-11.3333 2,-19 0,0 -0.3333,9.3333 7,9 7.3333,-0.3333 7,-10 7,-10 v -8 c 0,0 5,14.6667 4,21 0,0 3.3333,8.3333 -11,27 -14.3333,18.6667 -15,23 -15,23 0,0 -1.5,10 3,12.1667 0,0 4,4.1666 10,-1.1667 0,0 -3.6667,14.6667 -17,20 0,0 -13,8.3333 -28,7 z" style="fill:#fdc30d;stroke:#fd0;stroke-width:1"/><path id="path1121" d="m 212,182 c 0,0 4.5,-1.5 4,-7 -0.5,-5.5 -2,-8 -2,-8 0,0 -0.5747,-9.0192 0,-14 0.75,-6.5 4.5,-9 5.6667,-9.6667 0,0 -0.1667,4.6667 1,6 1.1666,1.3334 5,0.3334 5,0.3334 0,0 -3.3334,8.8333 1.3333,13.3333 0,0 0.6667,3.8333 7,5 0,0 -0.1667,5.6667 -12,13 0,0 -7.6667,3 -10,1 z" style="fill:#ffde00"/><path id="path1123" stroke="#ffffff00" d="m 242,125 c 0,0 6.5,-9.1667 8,-15 1.5,-5.8333 2.4583,-9.0833 1.125,-14.75 0,0 -1.125,3.25 -9.125,5.75 0,0 -5.3333,-0.7917 -6.5,-4.625 0,0 0.4349,11.1075 1.5,13.625 1.8333,4.3333 1.6411,5.8062 1.5,7.5 -0.125,1.5 -0.5,4.5 -0.5,11.5 0,0 2.1667,-0.8333 4,-4 z" style="fill:#ffde00;stroke-width:1"/><path id="path1125" d="m 238,103 c 0,0 4.8333,4.5 11,0 0,0 -3.1667,12.5 -6,15 0,0 -5.6667,-9.1667 -5,-15 z" style="fill:#fff686;stroke:#fdd866;stroke-width:1"/><path id="path1127" d="m 218,153 c 0,0 0.8333,2.6667 5,3 0,0 -1,12 7,15 0,0 -3.6667,6.1667 -11,9 z" style="fill:#fff686;stroke:#fdd866;stroke-width:1"/><path id="path1129" d="m 119,141 c 0,0 1,11 7,13 0,0 3,4.1667 7,8 4,3.8333 -6.3333,-1.6667 -7,-3 -0.6667,-1.3333 0.8333,-3 -1,-4 -1.8333,-1 -3,0 -3,0 0,0 -4.8333,-5.6667 -3,-14 z" style="fill:#e6e6e6"/><path id="path1131" d="m 135,112 c 0,0 -3.5,-6.6667 3,-11 6.5,-4.3333 16,9 16,9 0,0 0.5,2.1667 -2,2 -2.5,-0.1667 -7.8333,-1.5 -17,0 z" style="fill:#ed1e26"/><path id="path1133" d="m 138,104 c 0,0 2.3333,-4 6,0 3.6667,4 -1,4 -1,4 0,0 -2.8333,0.5 -5,-4 z" style="fill:#f79274"/><path id="path1135" stroke="#ffffff00" d="m 174,92 c 0,0 10.3333,-6.8333 25,3 0,0 2.6667,4.6667 -10,5 -12.6667,0.3333 -15,-8 -15,-8 z" style="fill:#ed1e26;stroke-width:1"/><path id="path1137" stroke="#ffffff00" d="m 182,95 c 0,0 -1,-3.1667 3,-3 4,0.1667 5,2 5,2 0,0 -0.1667,1.8333 -2,2 -1.8333,0.1667 -5.1667,0.5 -6,-1 z" style="fill:#f79274;stroke-width:1"/><path id="path1139" stroke="#ffffff00" d="m 180.6667,112 c 0,0 -2.6667,-4.1667 10.3333,-5 0,0 -7.6667,7 -8,7 -0.3333,0 -2.3333,1.1667 -2.3333,-2 z" style="fill:#ed1e26;stroke-width:1"/><path id="path1141" stroke="#ffffff00" d="m 182,111 c 0,0 0.1667,-3.6667 4,-1 0,0 -1.6667,4.3333 -4,1 z" style="fill:#f79274;stroke-width:1"/><path id="path1143" stroke="#ffffff00" d="m 204,138 c 0,0 3.25,-3.75 6,-2 2.75,1.75 -2,4 -2,4 z" style="fill:#ed1e26;stroke-width:1"/><path id="path1145" stroke="#ffffff00" d="m 206,137 c 0,0 0.1667,-3.6667 4,-1 0,0 -1.6667,4.3333 -4,1 z" style="fill:#f79274;stroke-width:1"/><path id="path1147" d="m 158,69 c 0,0 -8,-9.8333 -6,-16.6667 0,0 -2,6.8334 27,16.6667 0,0 12.6667,4.6667 18,10 l 1,2 c 0,0 7.8333,-3.8333 30,4 l -8,12 c 0,0 0.8333,-6.5 -13,-11 0,0 -8.8333,-2.5 -11,0 0,0 -14.6667,-16.1667 -38,-17 z" style="fill:#416b2a;stroke:#568e37;stroke-width:1"/><path id="path1149" d="m 161,79 v 5 c 0,0 -3,-4 -10,-4 z" style="fill:#416b2a;stroke:#568e37;stroke-width:1"/><path id="path1151" d="m 178,38 c 0,0 3.5,-2.3333 6,-2 0,0 11.1667,13.8333 12,29 0,0 -5.6667,-18 -18,-27 z" style="fill:#416b2a;stroke:#568e37;stroke-width:1"/><path id="path1153" d="m 200,76 c 0,0 5.1667,-1 7,-1 l -5,2 z" style="fill:none;stroke:#568e37;stroke-width:1"/><path id="path1155" d="m 217,105 c 0.3333,-0.6667 7,0.6667 8,0 0,0 -0.8333,0.8333 -7,2 0,0 -1.3333,-1.3333 -1,-2 z" style="fill:#416b2a;stroke:#568e37;stroke-width:1"/></g><path id="path1159" d="M 26.165185,44.671238 V 41.992287 L 58.312589,23.239635 91.608117,41.60958 v 8.03685 l 11.863923,4.97519 V 35.486265 L 58.312589,10.22759 13.535848,35.103558 v 9.56768" style="fill:#ed1e26;stroke:#221f20;stroke-width:1.53082871"/><path id="path1161" d="m 90.842697,76.81864 v 2.67895 L 58.312589,98.25024 25.782478,80.26301 V 71.84345 L 13.535848,67.25096 V 86.00361 L 58.312589,111.645 103.08933,86.38632 v -9.56768" style="fill:#ed1e26;stroke:#221f20;stroke-width:1.53082871"/><g id="g1175" transform="matrix(0.38270719,0,0,0.38270719,-6.3649262,-12.734841)"><path id="path1163" d="M 222.4229,129.9434 C 223.2496,129.58 225,127.4576 225,116 c 0,0 5.5,3.25 4,14 0,0 -3.5,6.75 -2,9 1.5,2.25 6,-4 6,-4 0,0 1.6667,-9.6667 -2,-21.3333 0,0 -6,-27.6667 13,-42.6667 0,0 -9.75,16.5 -3,21 6.75,4.5 5,-13 5,-13 0,0 -2.25,-17.75 9,-24 0,0 -6,14.5 1,29 0,0 7.25,23.5 -3,38 -10.25,14.5 -15,16 -19,28 -4,12 3,10 3,10 0,0 4.25,-1.5 6,-10 0,0 -2,-6.75 6,-13 0,0 -4.5,7.75 -3,19 1.5,11.25 -12,26 -12,26 0,0 -4.7974,3.6552 -8.496,5.7244" style="fill:#221f20;stroke:#000;stroke-width:2"/><path id="path1165" d="m 196,189 c 0,0 11.3333,-3.3333 17,-18 0,0 0.2422,-3.005 -0.5,-7.3125 -0.3609,-2.0944 -0.4107,-4.5947 -1.25,-5.9375 0,0 -0.9167,-14.0833 4.75,-16.75 5.6667,-2.6667 8,-8 8,-8 0,0 -3.6667,9 1,12 4.6667,3 8,-5 8,-5 0,0 5,-3.6667 3,-21 0,0 0,-3.3333 -2,-11 -2,-7.6667 -0.6667,-11.3333 2,-19 0,0 -0.3333,9.3333 7,9 7.3333,-0.3333 7,-10 7,-10 v -8 c 0,0 5,14.6667 4,21 0,0 3.3333,8.3333 -11,27 -14.3333,18.6667 -15,23 -15,23 0,0 -1.5,10 3,12.1667 0,0 4,4.1666 10,-1.1667 0,0 -3.6667,14.6667 -17,20 0,0 -13,8.3333 -28,7 z" style="fill:#fdc30d;stroke:#fd0;stroke-width:1"/><path id="path1167" d="m 212,182 c 0,0 4.5,-1.5 4,-7 -0.5,-5.5 -2,-8 -2,-8 0,0 -0.5747,-9.0192 0,-14 0.75,-6.5 4.5,-9 5.6667,-9.6667 0,0 -0.1667,4.6667 1,6 1.1666,1.3334 5,0.3334 5,0.3334 0,0 -3.3334,8.8333 1.3333,13.3333 0,0 0.6667,3.8333 7,5 0,0 -0.1667,5.6667 -12,13 0,0 -7.6667,3 -10,1 z" style="fill:#ffde00"/><path id="path1169" stroke="#ffffff00" d="m 242,125 c 0,0 6.5,-9.1667 8,-15 1.5,-5.8333 2.4583,-9.0833 1.125,-14.75 0,0 -1.125,3.25 -9.125,5.75 0,0 -5.3333,-0.7917 -6.5,-4.625 0,0 0.4349,11.1075 1.5,13.625 1.8333,4.3333 1.6411,5.8062 1.5,7.5 -0.125,1.5 -0.5,4.5 -0.5,11.5 0,0 2.1667,-0.8333 4,-4 z" style="fill:#ffde00;stroke-width:1"/><path id="path1171" d="m 238,103 c 0,0 4.8333,4.5 11,0 0,0 -3.1667,12.5 -6,15 0,0 -5.6667,-9.1667 -5,-15 z" style="fill:#fff686;stroke:#fdd866;stroke-width:1"/><path id="path1173" d="m 218,153 c 0,0 0.8333,2.6667 5,3 0,0 -1,12 7,15 0,0 -3.6667,6.1667 -11,9 z" style="fill:#fff686;stroke:#fdd866;stroke-width:1"/></g></g></svg>