<svg xmlns="http://www.w3.org/2000/svg" xmlns:svg="http://www.w3.org/2000/svg" xmlns:xlink="http://www.w3.org/1999/xlink" id="svg4247" width="120" height="120" version="1.1"><metadata id="metadata4259"/><defs id="defs4257"><linearGradient id="linearGradient4761"><stop id="stop4763" offset="0" style="stop-color:#1a1a1a;stop-opacity:1"/><stop id="stop4765" offset="1" style="stop-color:#1a1a1a;stop-opacity:0"/></linearGradient><linearGradient id="linearGradient4769" x1="-409.45" x2="-57.601" y1="-20.943" y2="133.444" gradientTransform="matrix(-1.0090909,0,0,-1.0090909,-74.103737,135.33971)" gradientUnits="userSpaceOnUse" xlink:href="#linearGradient4761"/><clipPath id="clipPath16" clipPathUnits="userSpaceOnUse"><path id="path18" d="m 0,0 275.05,0 0,269.777 L 0,269.777 0,0 Z"/></clipPath><circle id="SVGID_1_" cx="618" cy="618" r="585.6"/></defs><path id="path4251-6" d="M 6.6612254,48.073886 C 14.074737,18.341792 44.19189,0.24725348 73.930899,7.6616275 103.65782,15.074269 121.75447,45.189649 114.33749,74.920005 106.92746,104.65554 76.810279,122.75183 47.079931,115.33918 17.342646,107.92654 -0.7522758,77.807711 6.6612254,48.073886 Z" style="fill:url(#linearGradient4769);fill-opacity:1;stroke:none;stroke-opacity:1"/><path id="path4251" d="M 113.35374,73.305173 C 106.00702,102.76941 76.161184,120.70094 46.690076,113.35336 17.231001,106.0075 -0.70262839,76.163426 6.6475295,46.700911 13.990812,17.233241 43.836647,-0.70001494 73.29916,6.6458482 c 29.46939,7.3458628 47.4013,37.1933738 40.05458,66.6593248 z" style="fill:#fff;stroke:none;stroke-opacity:1;fill-opacity:1"/><style id="style5548"/><path id="path6359" d="M 115,59.999706 C 115,90.375523 90.376003,115.00004 60.000335,115.00004 29.624333,115.00004 5,90.375523 5,59.999706 5,29.624223 29.624333,5.0000396 60.000335,5.0000396 90.375668,5.0000396 115,29.624223 115,59.999706" style="fill:#fff;fill-opacity:1;stroke:#000;stroke-opacity:1;stroke-width:.5;stroke-miterlimit:4;stroke-dasharray:none;opacity:.5"/><g style="font-variation-settings:normal;opacity:1;vector-effect:none;fill:#ff060a;fill-opacity:1;stroke-width:1;stroke-linecap:butt;stroke-linejoin:miter;stroke-miterlimit:4;stroke-dasharray:none;stroke-dashoffset:0;stroke-opacity:1;stop-color:#000;stop-opacity:1" id="tron" transform="matrix(1.2356542,0,0,1.2356542,24.513903,24.574431)"><path style="font-variation-settings:normal;vector-effect:none;fill:#ff060a;fill-opacity:1;stroke-width:1;stroke-linecap:butt;stroke-linejoin:miter;stroke-miterlimit:4;stroke-dasharray:none;stroke-dashoffset:0;stroke-opacity:1;stop-color:#000;stop-opacity:1" id="path889" d="m 61.55,19.28 c -3,-2.77 -7.15,-7 -10.53,-10 L 50.82,9.14 A 3.82,3.82 0 0 0 49.71,8.52 v 0 C 41.56,7 3.63,-0.09 2.89,0 A 1.4,1.4 0 0 0 2.31,0.22 L 2.12,0.37 A 2.23,2.23 0 0 0 1.6,1.21 L 1.55,1.34 V 2.05 2.16 C 5.82,14.05 22.68,53 26,62.14 c 0.2,0.62 0.58,1.8 1.29,1.86 h 0.16 c 0.38,0 2,-2.14 2,-2.14 0,0 28.96,-35.12 31.89,-38.86 a 9.46,9.46 0 0 0 1,-1.48 2.41,2.41 0 0 0 -0.79,-2.24 z M 36.88,23.37 49.24,13.12 56.49,19.8 Z M 32.08,22.7 10.8,5.26 45.23,11.61 Z m 1.92,4.57 21.78,-3.51 -24.9,30 z M 7.91,7 30.3,26 27.06,53.78 Z" class="cls-1"/></g></svg>