<svg xmlns="http://www.w3.org/2000/svg" xmlns:svg="http://www.w3.org/2000/svg" xmlns:xlink="http://www.w3.org/1999/xlink" id="svg4247" width="120" height="120" version="1.1"><metadata id="metadata4259"/><defs id="defs4257"><linearGradient id="linearGradient4761"><stop id="stop4763" offset="0" style="stop-color:#1a1a1a;stop-opacity:1"/><stop id="stop4765" offset="1" style="stop-color:#1a1a1a;stop-opacity:0"/></linearGradient><linearGradient id="linearGradient4769" x1="-409.45" x2="-57.601" y1="-20.943" y2="133.444" gradientTransform="matrix(-1.0090909,0,0,-1.0090909,-74.103737,135.33971)" gradientUnits="userSpaceOnUse" xlink:href="#linearGradient4761"/><clipPath id="clipPath16" clipPathUnits="userSpaceOnUse"><path id="path18" d="m 0,0 275.05,0 0,269.777 L 0,269.777 0,0 Z"/></clipPath><circle id="SVGID_1_" cx="618" cy="618" r="585.6"/><clipPath id="clipPath16-5" clipPathUnits="userSpaceOnUse"><path id="path18-6" d="m 0,0 275.05,0 0,269.777 L 0,269.777 0,0 Z"/></clipPath><circle id="SVGID_1_-2" cx="618" cy="618" r="585.6"/></defs><path id="path4251-6" d="M 6.6612254,48.073886 C 14.074737,18.341792 44.19189,0.24725348 73.930899,7.6616275 103.65782,15.074269 121.75447,45.189649 114.33749,74.920005 106.92746,104.65554 76.810279,122.75183 47.079931,115.33918 17.342646,107.92654 -0.7522758,77.807711 6.6612254,48.073886 Z" style="fill:url(#linearGradient4769);fill-opacity:1;stroke:none;stroke-opacity:1"/><path id="path4251" d="M 113.35374,73.305173 C 106.00702,102.76941 76.161184,120.70094 46.690076,113.35336 17.231001,106.0075 -0.70262839,76.163426 6.6475295,46.700911 13.990812,17.233241 43.836647,-0.70001494 73.29916,6.6458482 c 29.46939,7.3458628 47.4013,37.1933738 40.05458,66.6593248 z" style="fill:#fff;stroke:none;stroke-opacity:1;fill-opacity:1"/><path id="path4985" d="m 56.785734,74.692498 3.57241,-13.45166 8.457786,-3.089967 2.103756,-7.90549 -0.07183,-0.196109 -8.325488,3.041524 5.998561,-22.586923 -17.012125,0 -7.844734,29.476456 -6.549806,2.392728 -2.164226,8.150041 6.544795,-2.390723 -4.623452,17.371832 45.276019,0 2.902561,-10.811709 -28.264228,0" style="fill:#fff"/><path id="path5145" d="M 77.899062,41.210625 C 75.231563,34.431875 68.542187,33.82 60.752813,35.3325 l -2.774063,-9.669688 -5.885,1.687813 2.701875,9.41875 c -1.546875,0.44 -3.12125,0.928125 -4.685313,1.409375 l -2.715625,-9.480625 -5.881562,1.684375 2.767187,9.669688 c -1.265,0.391875 -2.509375,0.776875 -3.729687,1.127499 l -0.01031,-0.03437 -8.119375,2.327187 1.804688,6.290625 c 0,0 4.324375,-1.33375 4.272812,-1.230625 2.385625,-0.684062 3.557813,0.477812 4.125,1.60875 l 3.1625,11.01375 c 0.161563,-0.04469 0.378125,-0.09969 0.6325,-0.1375 l -0.622187,0.17875 4.424062,15.434375 c 0.11,0.780313 0.01375,2.10375 -1.65,2.585 0.09281,0.04469 -4.283125,1.22375 -4.283125,1.22375 l 0.849063,7.366563 7.65875,-2.2 c 1.426562,-0.402188 2.835937,-0.780313 4.214375,-1.16875 l 2.808437,9.779687 5.878125,-1.684375 -2.774062,-9.676562 a 225.98125,225.98125 0 0 0 4.71625,-1.30625 L 70.395,91.185 l 5.888437,-1.687812 -2.798125,-9.7625 c 9.731563,-3.406563 15.943125,-7.885625 14.138438,-17.428125 -1.450625,-7.679375 -5.92625,-10.01 -11.931563,-9.74875 2.915,-2.715625 4.169688,-6.386875 2.206875,-11.34375 z M 75.664688,64.4825 c 2.096875,7.311563 -10.656251,10.068438 -14.64375,11.216562 L 57.305,62.739688 c 3.9875,-1.144688 16.17,-5.878126 18.35625,1.74625 z M 67.682813,46.985625 c 1.904374,6.651563 -8.755313,8.86875 -12.079375,9.820938 L 52.234688,45.05375 c 3.320625,-0.952187 13.457812,-5.001562 15.448125,1.935313 z" style="fill:#fff;fill-rule:nonzero"/><style id="style5548"/><path id="path6359" d="M 115,59.999706 C 115,90.375523 90.376003,115.00004 60.000335,115.00004 29.624333,115.00004 5,90.375523 5,59.999706 5,29.624223 29.624333,5.0000396 60.000335,5.0000396 90.375668,5.0000396 115,29.624223 115,59.999706" style="fill:#fff;fill-opacity:1;stroke:#000;stroke-opacity:1;stroke-width:.5;stroke-miterlimit:4;stroke-dasharray:none;opacity:.5"/><g id="g3410" transform="matrix(0.05494103,0,0,0.05494103,5.139203,4.9097547)"><path style="fill:#53ae94" id="path3400" d="m 1000,0 c 552.26,0 1000,447.74 1000,1000 0,552.26 -447.76,1000 -1000,1000 C 447.76,2000 0,1552.38 0,1000 0,447.62 447.68,0 1000,0"/><path style="fill:#fff" id="path3402" d="M 1123.42,866.76 V 718 H 1463.6 V 491.34 H 537.28 V 718 H 877.5 V 866.64 C 601,879.34 393.1,934.1 393.1,999.7 c 0,65.6 208,120.36 484.4,133.14 v 476.5 h 246 V 1132.8 c 276,-12.74 483.48,-67.46 483.48,-133 0,-65.54 -207.48,-120.26 -483.48,-133 m 0,225.64 v -0.12 c -6.94,0.44 -42.6,2.58 -122,2.58 -63.48,0 -108.14,-1.8 -123.88,-2.62 v 0.2 C 633.34,1081.66 451,1039.12 451,988.22 451,937.32 633.36,894.84 877.62,884 v 166.1 c 16,1.1 61.76,3.8 124.92,3.8 75.86,0 114,-3.16 121,-3.8 V 884 c 243.8,10.86 425.72,53.44 425.72,104.16 0,50.72 -182,93.32 -425.72,104.18"/></g><style id="style5548-7"/><g id="g889" transform="matrix(0.66545091,0,0,0.66545091,67.108789,56.970836)"><g style="font-variation-settings:normal;vector-effect:none;fill:#fff;fill-opacity:1;stroke-width:1;stroke-linecap:butt;stroke-linejoin:miter;stroke-miterlimit:4;stroke-dasharray:none;stroke-dashoffset:0;stroke-opacity:1;stop-color:#000" id="g882" transform="matrix(0.93772563,0,0,0.93772563,2.7298585,6.355645)"><path style="font-variation-settings:normal;vector-effect:none;fill:#fff;fill-opacity:1;stroke-width:1;stroke-linecap:butt;stroke-linejoin:miter;stroke-miterlimit:4;stroke-dasharray:none;stroke-dashoffset:0;stroke-opacity:1;stop-color:#000;stop-opacity:1" id="path880" d="m 2.5878906,-2.4960938 a 2.5138875,2.5138875 0 0 0 -0.048828,0.00781 c -0.5774628,0.081403 -1.1355651,0.2941523 -1.62109375,0.6171874 A 2.5138875,2.5138875 0 0 0 0.76953125,-1.765625 L 0.578125,-1.6171875 a 2.5138875,2.5138875 0 0 0 -0.25195312,0.2246094 c -0.4957151,0.5045113 -0.87674832,1.12172337 -1.10546876,1.7910156 l 0.0273438,-0.078125 -0.0488281,0.12890625 A 2.5138875,2.5138875 0 0 0 -0.96289062,1.3398438 v 0.7109374 0.109375 a 2.5138875,2.5138875 0 0 0 0.1484375,0.8496094 C 1.381119,9.123431 6.6478435,21.781385 11.8125,34.150391 c 5.164657,12.369006 10.239175,24.48401 11.824219,28.847656 l -0.0293,-0.08594 c 0.09948,0.308391 0.267376,0.894635 0.642578,1.578125 0.375202,0.68349 1.13351,1.870465 2.828125,2.013672 a 2.5138875,2.5138875 0 0 0 0.210937,0.0098 h 0.160157 c 1.227489,0 1.425116,-0.391256 1.671875,-0.570313 0.246759,-0.179057 0.403967,-0.329328 0.558594,-0.480468 0.309253,-0.302282 0.577781,-0.609464 0.832031,-0.910157 0.473281,-0.559734 0.822616,-1.022063 0.876953,-1.09375 0,0 28.65793,-34.73684 31.892578,-38.861328 0.0024,-0.0029 0.0035,-0.0068 0.0059,-0.0098 0.47675,-0.580379 0.900007,-1.205915 1.259766,-1.865235 a 2.5138875,2.5138875 0 0 0 0.267578,-0.761718 c 0.297158,-1.665014 -0.336304,-3.464918 -1.611328,-4.576172 l 0.05273,0.04687 C 60.34381,14.742849 56.180631,10.49885 52.6875,7.3984375 A 2.5138875,2.5138875 0 0 0 52.455078,7.2167969 L 52.255859,7.078125 52.396484,7.1816406 C 51.846477,6.7390741 51.221429,6.3898923 50.556641,6.1523438 A 2.5138875,2.5138875 0 0 0 50.171875,6.0488281 C 46.09838,5.2891089 34.575003,3.1355761 23.976562,1.1835938 18.677342,0.20760257 13.610903,-0.71717448 9.8144531,-1.3945312 7.9162282,-1.7332096 6.33619,-2.0101182 5.1953125,-2.2011719 4.6248738,-2.2966987 4.166631,-2.3701225 3.8164062,-2.421875 c -0.1751123,-0.025876 -0.3205086,-0.046286 -0.4609374,-0.0625 -0.1404289,-0.016214 0.065667,-0.1130593 -0.7675782,-0.011719 z m 17.3554684,11.9980469 19.59961,3.6152349 -7.486328,6.3125 z m -5.802734,6.0800779 13.507813,11.462891 -1.955079,16.759766 z m 35.013672,0.875 1.923828,1.773438 -5.205078,0.947265 z m 0.414062,10.84961 -15.199218,18.314453 1.904297,-16.171875 z"/></g><g style="font-variation-settings:normal;vector-effect:none;fill:#ff060a;fill-opacity:1;stroke-width:1;stroke-linecap:butt;stroke-linejoin:miter;stroke-miterlimit:4;stroke-dasharray:none;stroke-dashoffset:0;stroke-opacity:1;stop-color:#000" id="tron" transform="matrix(0.93772563,0,0,0.93772563,2.7298585,6.355645)"><path style="font-variation-settings:normal;vector-effect:none;fill:#ff060a;fill-opacity:1;stroke-width:1;stroke-linecap:butt;stroke-linejoin:miter;stroke-miterlimit:4;stroke-dasharray:none;stroke-dashoffset:0;stroke-opacity:1;stop-color:#000;stop-opacity:1" id="path889" d="m 61.55,19.28 c -3,-2.77 -7.15,-7 -10.53,-10 L 50.82,9.14 A 3.82,3.82 0 0 0 49.71,8.52 v 0 C 41.56,7 3.63,-0.09 2.89,0 A 1.4,1.4 0 0 0 2.31,0.22 L 2.12,0.37 A 2.23,2.23 0 0 0 1.6,1.21 L 1.55,1.34 V 2.05 2.16 C 5.82,14.05 22.68,53 26,62.14 c 0.2,0.62 0.58,1.8 1.29,1.86 h 0.16 c 0.38,0 2,-2.14 2,-2.14 0,0 28.96,-35.12 31.89,-38.86 a 9.46,9.46 0 0 0 1,-1.48 2.41,2.41 0 0 0 -0.79,-2.24 z M 36.88,23.37 49.24,13.12 56.49,19.8 Z M 32.08,22.7 10.8,5.26 45.23,11.61 Z m 1.92,4.57 21.78,-3.51 -24.9,30 z M 7.91,7 30.3,26 27.06,53.78 Z" class="cls-1"/></g></g></svg>