<svg xmlns="http://www.w3.org/2000/svg" xmlns:svg="http://www.w3.org/2000/svg" xmlns:xlink="http://www.w3.org/1999/xlink" id="Capa_1" width="120" height="120" version="1.1"><metadata id="metadata5534"/><defs id="defs5532"><linearGradient id="linearGradient4769" x1="-409.45" x2="-57.601" y1="-20.943" y2="133.444" gradientTransform="matrix(-0.14938582,0,0,-0.14938581,161.49689,146.17377)" gradientUnits="userSpaceOnUse" xlink:href="#linearGradient4761"/><linearGradient id="linearGradient4761"><stop id="stop4763" offset="0" style="stop-color:#1a1a1a;stop-opacity:1"/><stop id="stop4765" offset="1" style="stop-color:#1a1a1a;stop-opacity:0"/></linearGradient><linearGradient id="SVGID_1_-2" x1="1006.049" x2="1006.049" y1="-505.293" y2="1415.813" gradientTransform="matrix(0.00771193,0,0,0.00684688,1.1324947,2.6130109)" gradientUnits="userSpaceOnUse"><stop style="stop-color:#1f3e05" id="stop6370" offset="0"/><stop style="stop-color:#34bd0d" id="stop6372" offset="1"/></linearGradient></defs><style id="style5484"/><linearGradient id="SVGID_1_" x1="1981.964" x2="2163.297" y1="2444.496" y2="2444.496" gradientTransform="matrix(-0.29639156,0.95506651,-0.95506651,-0.29639156,3154.5722,-1144.0497)" gradientUnits="userSpaceOnUse"><stop id="stop5487" offset=".039" stop-color="#2cf4e1"/><stop id="stop5489" offset="1" stop-color="#2cb2e1"/></linearGradient><linearGradient id="SVGID_2_" x1="244.602" x2="324.336" y1="113.132" y2="222.118" gradientUnits="userSpaceOnUse"><stop id="stop5494" offset=".039" stop-color="#2cf4e1"/><stop id="stop5496" offset="1" stop-color="#2cb2e1"/></linearGradient><linearGradient id="SVGID_3_" x1="111.456" x2="224.122" y1="126.742" y2="280.742" gradientUnits="userSpaceOnUse"><stop id="stop5501" offset="0" stop-color="#2ce5e1"/><stop id="stop5503" offset="1" stop-color="#2cb2e1"/></linearGradient><linearGradient id="SVGID_4_" x1="186.474" x2="186.474" y1="233.727" y2="36.5" gradientUnits="userSpaceOnUse"><stop id="stop5508" offset="0"/><stop id="stop5510" offset="1" stop-color="#0d0d0d"/></linearGradient><linearGradient id="SVGID_5_" x1="186.057" x2="186.057" y1="248.796" y2="-16.973" gradientUnits="userSpaceOnUse"><stop id="stop5519" offset=".039" stop-color="#2cf4e1"/><stop id="stop5521" offset="1" stop-color="#2cb2e1"/></linearGradient><linearGradient id="SVGID_6_" x1="24.841" x2="347.273" y1="168.862" y2="168.862" gradientUnits="userSpaceOnUse"><stop id="stop5524" offset=".039" stop-color="#2cf4e1"/><stop id="stop5526" offset="1" stop-color="#2cb2e1"/></linearGradient><g id="g5756" transform="matrix(6.6645457,0,0,6.6285816,0.55216936,1.9081301)"><g id="g6486" transform="translate(-172.46721,-126.39751)"><path id="path4251-6" d="m 173.45333,133.25494 c 1.0975,-4.40154 5.55604,-7.08026 9.95861,-5.98264 4.40077,1.09737 7.0798,5.55565 5.98179,9.95693 -1.09698,4.40205 -5.55553,7.08103 -9.95681,5.98366 -4.40231,-1.09737 -7.08108,-5.55616 -5.98359,-9.95795 z" style="fill:url(#linearGradient4769);fill-opacity:1;stroke:none;stroke-opacity:1"/><path id="path4251" d="m 189.24809,136.99018 c -1.0876,4.36188 -5.50598,7.01646 -9.86889,5.92873 -4.36112,-1.08748 -7.01601,-5.5056 -5.92789,-9.86723 1.08709,-4.36239 5.50547,-7.01723 9.8671,-5.92975 4.36265,1.08748 7.01729,5.50611 5.92968,9.86825 z" style="fill:#fff;fill-opacity:1;stroke:none;stroke-opacity:1"/><path id="path4985" d="m 180.87377,137.19555 0.52885,-1.99138 1.2521,-0.45744 0.31144,-1.17033 -0.0106,-0.029 -1.2325,0.45027 0.88802,-3.34377 -2.51847,0 -1.16134,4.3637 -0.96963,0.35421 -0.32039,1.20654 0.96889,-0.35393 -0.68446,2.57173 6.70267,0 0.42969,-1.60057 -4.18424,0" style="fill:#fff"/><path id="path5145" d="m 183.99938,132.2389 c -0.39489,-1.00353 -1.38519,-1.09411 -2.53833,-0.8702 l -0.41067,-1.4315 -0.87122,0.24986 0.39999,1.39436 c -0.229,0.0651 -0.46207,0.1374 -0.69361,0.20864 l -0.40203,-1.40351 -0.8707,0.24935 0.40965,1.4315 c -0.18727,0.058 -0.37149,0.11501 -0.55214,0.16692 l -0.002,-0.005 -1.20199,0.34451 0.26716,0.93127 c 0,0 0.64018,-0.19745 0.63255,-0.18218 0.35317,-0.10127 0.5267,0.0707 0.61067,0.23816 l 0.46817,1.63047 c 0.0239,-0.007 0.056,-0.0148 0.0936,-0.0203 l -0.0921,0.0265 0.65494,2.2849 c 0.0163,0.11552 0.002,0.31144 -0.24427,0.38269 0.0137,0.007 -0.63407,0.18116 -0.63407,0.18116 l 0.12569,1.09055 1.1338,-0.32569 c 0.21119,-0.0595 0.41984,-0.11552 0.6239,-0.17302 l 0.41576,1.44778 0.8702,-0.24935 -0.41067,-1.43252 a 33.454265,33.454263 0 0 0 0.69819,-0.19338 l 0.40813,1.42641 0.87172,-0.24986 -0.41423,-1.44524 c 1.44066,-0.50431 2.36022,-1.16739 2.09306,-2.58006 -0.21475,-1.13685 -0.87733,-1.48188 -1.76635,-1.4432 0.43153,-0.40203 0.61728,-0.94552 0.3267,-1.67933 z m -0.33077,3.44517 c 0.31042,1.0824 -1.57756,1.49053 -2.16787,1.6605 l -0.5501,-1.91851 c 0.59031,-0.16946 2.3938,-0.8702 2.71746,0.25852 z m -1.18164,-2.59024 c 0.28192,0.9847 -1.29614,1.31293 -1.78823,1.45389 l -0.49871,-1.73989 c 0.49158,-0.14096 1.99229,-0.74043 2.28694,0.28651 z" style="fill:#fff;fill-rule:nonzero"/><path id="path6359" d="m 189.49181,135.02043 c 0,4.49684 -3.64534,8.14225 -8.14216,8.14225 -4.49686,0 -8.14224,-3.64541 -8.14224,-8.14225 0,-4.49678 3.64538,-8.14215 8.14224,-8.14215 4.49677,0 8.14216,3.64537 8.14216,8.14215" style="opacity:.5;fill:#fff;fill-opacity:1;stroke:#000;stroke-width:.07402;stroke-miterlimit:4;stroke-dasharray:none;stroke-opacity:1"/></g><path style="fill:#00af00;fill-opacity:1;stroke:none;stroke-opacity:1" id="path6374" d="m 7.8527193,6.9974828 2.5673637,4.8203162 -0.04897,0.0871 -1.4881867,2.773169 -5.4783489,-10.2504434 3.0744314,0 1.3737111,2.5698582 0,0 z m 6.5248497,-2.5553226 -3.156285,5.9092848 -0.294226,0.53709 -1.5372425,-2.8892237 0.049086,-0.08709 1.8479265,-3.4700512 3.090741,0 0,-6.9e-6 z"/></g></svg>