<svg xmlns="http://www.w3.org/2000/svg" xmlns:svg="http://www.w3.org/2000/svg" xmlns:xlink="http://www.w3.org/1999/xlink" id="svg4247" width="120" height="120" version="1.1"><metadata id="metadata4259"/><defs id="defs4257"><linearGradient id="linearGradient4761"><stop style="stop-color:#1a1a1a;stop-opacity:1" id="stop4763" offset="0"/><stop style="stop-color:#1a1a1a;stop-opacity:0" id="stop4765" offset="1"/></linearGradient><linearGradient id="linearGradient4769" x1="-409.45" x2="-57.601" y1="-20.943" y2="133.444" gradientTransform="matrix(-1.0090909,0,0,-1.0090909,-74.103737,135.33971)" gradientUnits="userSpaceOnUse" xlink:href="#linearGradient4761"/><linearGradient id="linearGradient-1" x1="950" x2="50" y1="50" y2="911.277" gradientUnits="userSpaceOnUse"><stop id="stop4908" offset="0%" stop-color="#52527A" stop-opacity=".5"/><stop id="stop4910" offset="100%" stop-color="#1F1F2E"/></linearGradient><circle id="path-2" cx="500" cy="500" r="450"/><linearGradient id="linearGradient-3" x1="743.998" x2="255.999" y1="256" y2="723.003" gradientTransform="scale(1.0000025,0.99999752)" gradientUnits="userSpaceOnUse"><stop id="stop4914" offset="0%" stop-color="#59F979"/><stop id="stop4916" offset="100%" stop-color="#23B852"/></linearGradient><path id="path-4" d="M573.773771,585.110953 L665.570745,585.110953 L665.570745,665.569089 L389.886794,665.569089 L732.514075,322.941808 C743.729292,311.727163 747.082525,294.860841 741.013625,280.207116 C734.944725,265.553962 720.645839,255.999623 704.785086,255.999623 L295.215048,255.999623 C273.557248,255.999623 256.001279,273.556164 256.001279,295.213964 L256.001279,414.885296 L256.000134,414.885296 L256.000134,585.110953 L426.225791,414.885296 L334.429389,414.885296 L334.429389,334.427733 L610.113912,334.427733 L267.486631,677.053869 C256.271987,688.269086 252.916464,705.137125 258.985936,719.789707 C265.055981,734.443433 279.354867,743.997199 295.215048,743.997199 L704.785086,743.997199 C726.441169,743.997199 743.998855,726.440085 743.998855,704.78343 L743.998855,585.110953 L744,585.110953 L744,414.885296 L573.773771,585.110953 Z"/><filter id="filter-5" width="100.2%" height="100.2%" x="-.1%" y="-.1%" filterUnits="objectBoundingBox"><feOffset id="feOffset4920" dx="-1" dy="1" in="SourceAlpha" result="shadowOffsetInner1"/><feComposite id="feComposite4922" in="shadowOffsetInner1" in2="SourceAlpha" k2="-1" k3="1" operator="arithmetic" result="shadowInnerInner1"/><feColorMatrix id="feColorMatrix4924" in="shadowInnerInner1" type="matrix" values="0 0 0 0 0.290196078 0 0 0 0 1 0 0 0 0 0.51372549 0 0 0 1 0"/></filter></defs><path style="fill:url(#linearGradient4769);fill-opacity:1;stroke:none;stroke-opacity:1" id="path4251-6" d="M 6.6612254,48.073886 C 14.074737,18.341792 44.19189,0.24725348 73.930899,7.6616275 103.65782,15.074269 121.75447,45.189649 114.33749,74.920005 106.92746,104.65554 76.810279,122.75183 47.079931,115.33918 17.342646,107.92654 -0.7522758,77.807711 6.6612254,48.073886 Z"/><g id="App" transform="matrix(0.12222222,0,0,0.12222222,-1.1111111,-1.1111111)" style="fill:none;fill-rule:evenodd;stroke:none;stroke-width:1"><g id="App-Icon02"><g id="Oval"><use id="use4929" width="100%" height="100%" x="0" y="0" xlink:href="#path-2" style="fill:#1f1f2e"/><use id="use4931" width="100%" height="100%" x="0" y="0" xlink:href="#path-2" style="fill:url(#linearGradient-1)"/></g><g id="Fill-1"><use id="use4934" width="100%" height="100%" x="0" y="0" xlink:href="#path-4" style="fill:url(#linearGradient-3);fill-rule:evenodd"/><use id="use4936" width="100%" height="100%" x="0" y="0" xlink:href="#path-4" style="fill:#000;fill-opacity:1;filter:url(#filter-5)"/></g></g></g></svg>